<?xml version="1.0" encoding="UTF-8"?>
<svg width="193px" height="129px" viewBox="0 0 193 129" version="1.1" xmlns="http://www.w3.org/2000/svg" xmlns:xlink="http://www.w3.org/1999/xlink">
    <!-- Generator: Sketch 43.2 (39069) - http://www.bohemiancoding.com/sketch -->
    <title>chat</title>
    <desc>Created with Sketch.</desc>
    <defs>
        <linearGradient x1="50.0001182%" y1="-0.000163376043%" x2="50.0001182%" y2="99.9981782%" id="linearGradient-1">
            <stop stop-color="#CECFD1" offset="0%"></stop>
            <stop stop-color="#9D9EA1" offset="50.5208%"></stop>
        </linearGradient>
        <linearGradient x1="54.880919%" y1="2.51143807%" x2="40.4776465%" y2="98.4793127%" id="linearGradient-2">
            <stop stop-color="#191847" offset="0%"></stop>
            <stop stop-color="#240749" offset="100%"></stop>
        </linearGradient>
        <linearGradient x1="50.0002674%" y1="0%" x2="50.0002674%" y2="100%" id="linearGradient-3">
            <stop stop-color="#2F3676" offset="0%"></stop>
            <stop stop-color="#2E0662" offset="100%"></stop>
        </linearGradient>
        <linearGradient x1="21.4041854%" y1="1.13485295%" x2="74.1005956%" y2="97.7741348%" id="linearGradient-4">
            <stop stop-color="#872F2A" offset="0%"></stop>
            <stop stop-color="#4F062E" offset="100%"></stop>
        </linearGradient>
        <linearGradient x1="50.001407%" y1="0%" x2="50.001407%" y2="100%" id="linearGradient-5">
            <stop stop-color="#B23D37" offset="0%"></stop>
            <stop stop-color="#69093E" offset="100%"></stop>
        </linearGradient>
        <linearGradient x1="42.9376523%" y1="7.37327508%" x2="51.7779423%" y2="76.4216928%" id="linearGradient-6">
            <stop stop-color="#26162B" offset="0%"></stop>
            <stop stop-color="#2F0718" offset="100%"></stop>
        </linearGradient>
        <linearGradient x1="49.9975198%" y1="0.00492491525%" x2="49.9975198%" y2="100%" id="linearGradient-7">
            <stop stop-color="#26162B" offset="0%"></stop>
            <stop stop-color="#2F0718" offset="100%"></stop>
        </linearGradient>
        <linearGradient x1="50%" y1="0%" x2="50%" y2="100%" id="linearGradient-8">
            <stop stop-color="#4E4D79" offset="0%"></stop>
            <stop stop-color="#191847" offset="100%"></stop>
        </linearGradient>
        <linearGradient x1="50.006994%" y1="0%" x2="50.006994%" y2="100%" id="linearGradient-9">
            <stop stop-color="#4E4D79" offset="0%"></stop>
            <stop stop-color="#191847" offset="100%"></stop>
        </linearGradient>
        <linearGradient x1="2.05686926%" y1="2.05686926%" x2="97.9431307%" y2="97.9431307%" id="linearGradient-10">
            <stop stop-color="#4E4D79" offset="0%"></stop>
            <stop stop-color="#191847" offset="100%"></stop>
        </linearGradient>
        <linearGradient x1="0%" y1="50.0297089%" x2="100%" y2="50.0297089%" id="linearGradient-11">
            <stop stop-color="#4E4D79" offset="0%"></stop>
            <stop stop-color="#191847" offset="100%"></stop>
        </linearGradient>
        <linearGradient x1="2.05200865%" y1="97.9479162%" x2="97.9443271%" y2="2.05208384%" id="linearGradient-12">
            <stop stop-color="#4E4D79" offset="0%"></stop>
            <stop stop-color="#191847" offset="100%"></stop>
        </linearGradient>
        <linearGradient x1="49.9975472%" y1="0%" x2="49.9975472%" y2="100.00102%" id="linearGradient-13">
            <stop stop-color="#E28D09" offset="0%"></stop>
            <stop stop-color="#B9522A" offset="100%"></stop>
        </linearGradient>
        <linearGradient x1="49.9984773%" y1="0%" x2="49.9984773%" y2="100%" id="linearGradient-14">
            <stop stop-color="#FDA403" offset="0%"></stop>
            <stop stop-color="#E76B33" offset="100%"></stop>
        </linearGradient>
    </defs>
    <g id="Page-1" stroke="none" stroke-width="1" fill="none" fill-rule="evenodd">
        <g id="chat">
            <g id="Group" opacity="0.504511" transform="translate(7.000000, 48.000000)" fill="#F2F2F2">
                <path d="M171.178,41.647 C173.662,60.226 113.428,72.344 61.5835,63.887 C9.7389,55.43 -14.0449991,22.405 10.6944,4.8078 C35.4338,-12.7892 168.695,23.069 171.178,41.647 Z" id="Shape"></path>
            </g>
            <g id="Group" opacity="0.7" transform="translate(124.000000, 13.000000)">
                <path d="M6.789,31.5055 C10.479,31.314 15.042,33.4678 15.436,37.4787 C15.722,40.3929 15.634,43.2987 16.076,46.209 C16.43,48.534 17.178,50.767 18.199,52.885 C19.181,54.922 21.217,56.656 21.746,58.832 C22.084,60.219 21.895,62.17 21.429,63.526 C20.863,65.175 21.164,65.045 22.292,66.428 C24.502,69.14 26.492,71.921 27.9,75.159 C29.927,79.824 31.256,85.277 30.503,90.383 C30.408,91.032 30.294,93.359 29.401,93.521 C28.404,93.703 28.87,92.372 28.924,91.943 C29.263,89.2 29.564,86.802 29.155,84.016 C27.576,73.267 19.865,66.185 14.844,57.062 C14.568,56.592 13.985,55.472 13.58,54.733 C12.94,53.566 12.297,51.346 11.431,50.48 C9.801,48.851 11.3,52.127 11.618,52.753 C12.019,53.544 12.461,54.385 12.873,55.078 C14.757,58.292 16.859,61.801 18.805,65.114 C10.391,67.031 4.465,56.915 2.207,50.264 C0.346,44.785 -1.88,31.9743 6.789,31.5055 Z" id="Shape" fill="#69A1AC"></path>
                <path d="M56.244,21.3296 C50.076,21.819 46.116,25.8892 44.273,31.5822 C43.279,34.6501 43.165,37.8018 42.613,40.9546 C41.783,45.698 39.996,49.293 36.503,52.672 C35.422,53.719 34.624,54.793 34.058,55.943 C32.933,57.091 31.954,58.39 31.234,59.978 C30.315,62.006 30.055,64.44 31.116,66.462 C31.402,67.005 32.113,68.096 32.851,68.592 C30.089,74.473 28.571,80.914 28.742,87.347 C28.846,91.23 29.035,95.115 29.256,98.993 C29.316,100.035 29.655,101.754 30.164,100.008 C30.631,98.41 30.046,95.903 29.992,94.234 C29.729,86.104 29.504,78.712 32.85,71.116 C33.201,70.32 33.573,69.53 33.961,68.747 C33.984,68.734 34.005,68.718 34.026,68.702 C34.041,68.714 34.054,68.726 34.069,68.737 C34.094,68.693 34.128,68.64 34.167,68.582 C34.279,68.467 34.376,68.322 34.468,68.16 C34.765,67.749 35.101,67.266 35.102,67.001 C35.102,66.999 35.101,66.996 35.101,66.994 C37.173,63.612 39.546,60.416 41.97,57.283 C41.952,57.306 44.599,53.701 44.19,55.695 C43.992,56.655 42.045,58.485 41.259,59.502 C39.519,61.766 37.476,64.634 35.778,67.408 C35.55,67.539 35.227,68.183 34.994,68.664 C34.865,68.907 34.745,69.152 34.626,69.366 C40.642,71.353 45.321,67.35 48.512,62.694 C48.516,62.688 48.519,62.682 48.523,62.677 C49.494,61.39 50.488,60.113 51.731,59.096 C53.804,57.399 56.024,57.099 58.469,56.264 C65.135,53.986 67.969,45.347 68.869,38.9374 C69.884,31.7057 64.917,20.6166 56.244,21.3296 Z" id="Shape" fill="#89C5CC"></path>
                <path d="M44.06,1.0785 C37.729,7.6673 34.671,16.8062 32.249,25.3977 C29.544,34.9935 27.757,44.737 27.689,54.714 C27.644,61.269 27.465,67.864 27.848,74.412 C27.984,76.737 28.216,79.066 28.584,81.366 C28.614,81.555 29.439,86.691 30.228,85.494 C30.677,84.814 29.383,80.167 29.285,79.393 C28.735,75.033 28.607,70.641 28.634,66.25 C28.678,59.02 28.465,51.827 29.198,44.624 C29.307,43.5486 29.393,42.419 29.649,41.3669 C29.92,40.2484 29.575,40.7366 30.458,40.2938 C31.317,39.8633 32.377,39.9248 33.268,39.3848 C36.801,37.2423 38.609,31.7392 40.015,28.1284 C41.624,23.9993 42.602,19.5962 43.383,15.2509 C43.957,12.0583 44.367,8.8851 44.599,5.6513 C44.672,4.6322 44.676,3.5664 44.876,2.5643 C44.93,2.294 45.201,1.8158 45.191,1.5764 C45.17,1.0698 44.865,0.7718 44.84,0.3461 C44.575,0.5846 44.314,0.8289 44.06,1.0785 Z" id="Shape" fill="#89C5CC"></path>
                <path d="M9.54,88.864 C9.54,99.761 18.373,108.594 29.27,108.594 C40.166,108.594 49,99.761 49,88.864" id="Shape" fill="#89C5CC"></path>
                <path d="M30.853,88.927 L29.81,88.927 C29.883,87.62 29.978,86.314 30.197,85.02 C31.033,80.074 33.648,72.808 39.383,72.005 C39.595,71.975 40.373,71.97 41.316,72.026 C41.763,71.776 42.263,71.625 42.791,71.59 C47.674,71.23 53.127,75.17 55.482,79.269 C57.381,82.574 57.061,86.915 55.888,90.426 C55.103,92.777 53.389,96.129 50.53,96.162 C46.954,96.203 46.782,91.783 46.713,89.199 C46.621,85.763 46.187,82.771 43.48,80.429 C42.849,79.884 42.159,79.404 41.522,78.866 C40.524,78.024 39.422,77.162 39.293,75.769 C39.116,73.847 40.2,73.502 41.857,73.859 C42.139,73.919 44.983,75.195 44.562,74.187 C44.433,73.879 43.964,73.634 43.371,73.451 C41.837,73.285 40.009,73.091 39.483,73.207 C33.808,74.452 31.599,82.312 31.012,87.306 C30.949,87.845 30.897,88.386 30.853,88.927 Z" id="Shape" fill="#69A1AC"></path>
            </g>
            <g id="Group" opacity="0.5">
                <path d="M41.2229,25.5768 C42.1873,24.2017 43.977,20.7092 45.3345,20.2178 C46.2088,19.9013 45.9539,23.1752 45.9647,23.7995 C46.0067,26.2147 45.7716,28.6146 45.4812,31.0095 C44.9581,35.3288 43.2475,39.1754 40.9014,42.8515 C39.6941,44.7431 38.278,46.6576 36.3167,47.8379 C35.4139,48.3814 34.3277,48.4724 33.4361,48.9407 C32.3977,49.4859 32.9632,49.0452 32.4953,50.1272 C31.8454,51.6294 31.6376,53.5675 31.3369,55.1704 C29.9564,62.529 26.6141,101.427 27.1935,108.912 C27.245,109.575 26.3199,109.734 26.2737,108.924 C26.0283,104.63 28.1522,74.891 29.2238,65.166 C30.2954,55.441 31.3797,46.8492 32.467,43.4846 C33.7861,39.4026 36.1684,34.4937 38.1515,30.6871 C39.0726,28.9186 40.0767,27.211 41.2229,25.5768 Z" id="Shape" fill="#69A1AC"></path>
                <path d="M48.3813,73.275 C50.8909,71.432 53.6073,74.91 51.3364,76.752 C50.081,77.771 48.7685,77.408 48.0296,76.56 C47.55,77.144 47.101,77.756 46.6697,78.272 C45.3554,79.845 44.1132,81.456 42.926,83.105 C40.4598,86.53 38.3463,90.148 36.1366,93.7 C33.9558,97.206 31.7924,100.73 29.8158,104.325 C28.1413,107.37 25.9095,110.953 25.3362,114.292 C26.206,107.211 29.5066,100.405 33.4371,94.162 C37.3356,87.971 41.8095,81.21 47.8458,76.324 C47.2315,75.42 47.2144,74.131 48.3813,73.275 Z" id="Shape" fill="#C1DEE2"></path>
                <path d="M0.75964,56.0051 C2.16401,56.2798 4.4587,59.457 5.6164,60.667 C6.9921,62.106 8.2403,63.639 9.4168,65.245 C11.9496,68.703 14.2148,72.379 16.1409,76.212 C19.2811,82.462 21.7968,88.877 23.6225,95.683 C24.7401,99.849 25.4637,104.166 25.8925,108.454 C25.9735,109.263 26.8213,115.497 25.5997,115.665 C24.501,115.816 24.8403,110.931 24.7873,110.267 C24.1882,102.77 22.3933,95.476 19.8966,88.41 C19.3528,86.87 18.8476,84.985 17.9779,83.6 C17.3516,82.602 17.9734,82.95 16.8728,82.572 C15.9277,82.248 14.851,82.327 13.8832,81.93 C11.7808,81.068 10.0974,79.394 8.6218,77.711 C5.7542,74.439 3.4817,70.899 2.29716,66.707 C1.64006,64.382 1.03622,62.044 0.70113,59.648 C0.61444,59.028 -0.14491,55.8282 0.75964,56.0051 Z" id="Shape" fill="#69A1AC"></path>
                <path d="M6.3018,3.1478 C11.5918,12.322 15.9389,22.3996 18.7458,32.6066 C20.4465,38.7909 21.6358,45.137 22.8175,51.4372 C24.6471,61.192 26.3778,70.947 26.8701,80.875 C27.3653,90.861 28.3447,102.378 25.0748,111.996 C26.7081,102.231 25.1531,91.838 24.8778,82.012 C24.7462,77.322 24.3649,72.677 23.8648,68.014 C23.3794,63.49 22.5865,58.988 21.8481,54.5004 C21.4884,52.3147 21.1106,50.1323 20.726,47.9511 C20.6112,47.3003 20.5627,45.3693 20.1499,44.9247 C19.7344,44.4772 17.6146,44.2948 16.949,43.9664 C15.6089,43.3051 14.3483,42.3657 13.2326,41.3732 C11.0939,39.4705 9.2333,36.9843 7.7648,34.5336 C4.367,28.8629 3.0085,21.9426 3.0772,15.3752 C3.0904,14.1001 5.141,0.3695 4.3174,0.1804 C4.367,0.1223 4.4139,0.0624 4.4581,0 C5.0817,1.0439 5.6935,2.095 6.3018,3.1478 Z" id="Shape" fill="#89C5CC"></path>
                <path d="M63.398,36.2349 C63.4796,36.1172 64.0108,35.2984 63.7433,35.3507 C64.288,35.2442 62.9942,36.2538 64.3513,35.6343 C63.7069,36.2429 64.0788,37.0334 64.0874,37.8525 C64.1014,39.1822 63.879,40.5011 63.6285,41.8024 C63.2327,43.8593 62.6432,45.8592 61.7874,47.7723 C59.9223,51.9416 56.7552,55.9552 52.9952,58.562 C51.139,59.849 49.3199,60.287 47.2029,60.879 C45.8658,61.254 45.7597,61.945 45.0499,63.243 C43.5722,65.945 42.1209,68.638 40.8177,71.432 C39.2616,74.768 37.751,78.108 36.326,81.503 C31.5257,92.938 27.6186,104.785 25.5668,117.045 C25.5165,109.82 27.1879,102.379 29.2962,95.492 C30.832,90.475 32.8313,85.638 34.9637,80.85 C35.4804,79.69 36.2635,78.198 36.4829,76.918 C36.6366,76.021 36.1668,75.158 35.9518,74.213 C35.1132,70.532 35.1733,66.409 35.9096,62.708 C36.7215,58.628 39.0693,56.7343 43.041,56.1563 C44.4936,55.9449 46.3398,56.0224 47.6717,55.4031 C49.1228,54.7286 49.7214,52.5118 50.5465,51.0887 C52.7628,47.2661 55.3961,43.6 58.4199,40.3791 C59.2571,39.4872 60.1575,38.6644 61.1127,37.9017 C61.715,37.4205 62.9875,36.8277 63.398,36.2349 Z" id="Shape" fill="#89C5CC"></path>
                <path d="M18.8623,109.242 L32.9575,109.242 C33.5913,109.242 34.105,109.756 34.105,110.39 C34.105,110.446 34.1009,110.502 34.0927,110.557 L33.0033,117.944 C32.6712,120.196 30.7388,121.865 28.4624,121.865 L23.3574,121.865 C21.081,121.865 19.1486,120.196 18.8165,117.944 L17.727,110.557 C17.6346,109.93 18.0679,109.347 18.6948,109.254 C18.7503,109.246 18.8062,109.242 18.8623,109.242 Z" id="Shape" fill="#C1DEE2"></path>
            </g>
            <path d="M51.0957,61.129 C50.1092,59.915 49.4416,58.428 49.5531,56.7622 C49.8746,51.9615 56.2522,53.0176 57.4927,55.4406 C58.7333,57.864 58.5859,64.01 56.9826,64.443 C56.3432,64.615 54.981,64.192 53.5947,63.317 L54.4649,69.767 L49.3269,69.767 L51.0957,61.129 Z" id="Shape" fill="#EACDB3"></path>
            <path d="M59.769,52.0817 C59.6626,51.6898 59.3764,51.3543 58.9907,51.2547 C58.8972,51.2306 58.8006,51.2208 58.7044,51.2249 C58.6698,51.2263 58.6602,51.2368 58.644,51.2115 C58.6321,51.1927 58.6318,51.1469 58.6269,51.1249 C58.6115,51.0563 58.5924,50.9887 58.5687,50.9227 C58.488,50.6979 58.3524,50.4989 58.1889,50.3312 C57.8832,50.0176 57.47,49.8012 57.0407,49.762 C56.8058,49.7406 56.5726,49.7806 56.3504,49.8607 C56.2355,49.9022 56.124,49.9538 56.0154,50.0108 C55.9827,50.028 55.8766,50.1122 55.8438,50.1067 C55.8075,50.1007 55.7347,50.0063 55.7052,49.9826 C55.341,49.6898 54.8912,49.5747 54.4375,49.5782 C53.9254,49.5822 53.4323,49.609 53.0052,49.9361 C52.9148,50.0053 52.8287,50.0812 52.7467,50.161 C52.7036,50.203 52.6617,50.2466 52.6219,50.292 C52.5978,50.3194 52.5744,50.3475 52.5518,50.3762 C52.5135,50.4251 52.5197,50.4411 52.4661,50.407 C52.2606,50.2762 52.0224,50.215 51.7825,50.2459 C51.64,50.2642 51.5014,50.3091 51.3698,50.368 C51.325,50.3881 51.2213,50.4682 51.1735,50.469 C51.1262,50.4698 51.0239,50.3955 50.9751,50.3767 C50.7115,50.2747 50.4274,50.2496 50.1504,50.2967 C49.8646,50.3453 49.5838,50.4648 49.3417,50.6299 C49.2252,50.7093 49.1236,50.7973 49.042,50.9154 C49.0068,50.9664 48.9749,51.0203 48.935,51.0676 C48.9116,51.0952 48.8653,51.1236 48.8527,51.1587 C48.8603,51.1377 48.5402,51.0084 48.51,51.0001 C48.3491,50.9561 48.1853,50.965 48.0277,51.0194 C47.7314,51.1215 47.4766,51.3506 47.2672,51.5855 C47.1597,51.7062 47.0656,51.8396 46.9857,51.9817 C46.9474,52.0497 46.9124,52.1197 46.8803,52.1912 C46.8648,52.2258 46.8545,52.2692 46.8341,52.3004 C46.8077,52.3406 46.79,52.3413 46.7423,52.3589 C46.4998,52.4479 46.2787,52.5985 46.1104,52.8021 C45.9402,53.0081 45.8297,53.2617 45.7834,53.5288 C45.7806,53.5446 45.779,53.6098 45.7702,53.6183 C45.7582,53.63 45.7094,53.6248 45.691,53.6271 C45.6271,53.6349 45.5637,53.6466 45.5011,53.6622 C45.3857,53.6908 45.2735,53.7329 45.1672,53.7879 C44.7532,54.0026 44.4571,54.405 44.3122,54.8578 C44.1602,55.3331 44.1628,55.8775 44.3446,56.3439 C44.3739,56.4192 44.4089,56.4923 44.4499,56.5615 C44.4751,56.6039 44.4832,56.604 44.4669,56.6486 C44.4486,56.6981 44.4153,56.7463 44.3937,56.7947 C44.323,56.9527 44.2736,57.12 44.2425,57.292 C44.1913,57.572 44.1659,57.867 44.2164,58.15 C44.2398,58.282 44.2807,58.41 44.343,58.527 C44.3748,58.587 44.4119,58.643 44.4539,58.696 C44.4757,58.723 44.4988,58.749 44.523,58.774 C44.5369,58.788 44.555,58.8 44.5668,58.816 C44.5955,58.855 44.6016,58.823 44.5868,58.88 C44.5661,58.959 44.5191,59.038 44.4903,59.115 C44.4607,59.195 44.4339,59.275 44.4094,59.357 C44.3598,59.522 44.3178,59.69 44.2916,59.861 C44.2412,60.189 44.25,60.539 44.3982,60.84 C44.4616,60.969 44.5525,61.082 44.6627,61.17 C44.7166,61.213 44.7751,61.25 44.8364,61.281 C44.8679,61.296 44.9081,61.303 44.9225,61.335 C44.938,61.369 44.915,61.437 44.9098,61.476 C44.8642,61.81 44.8414,62.16 44.9361,62.487 C45.0233,62.789 45.2154,63.055 45.4647,63.231 C45.9485,63.573 46.6005,63.553 47.1088,63.28 C47.2413,63.209 47.3653,63.12 47.4758,63.016 C47.7574,63.413 48.3368,63.4 48.7483,63.287 C49.261,63.146 49.6724,62.772 49.9094,62.282 C50.2335,62.695 50.9137,62.561 51.1385,62.112 C51.1935,62.003 51.2261,61.882 51.2422,61.759 C51.2506,61.695 51.2452,61.63 51.2516,61.566 C51.2597,61.485 51.3116,61.406 51.3414,61.327 C51.3995,61.174 51.4355,61.015 51.4371,60.85 C51.4379,60.764 51.4274,60.68 51.4196,60.594 C51.4126,60.517 51.433,60.445 51.4445,60.369 C51.3131,60.392 51.1529,60.355 51.029,60.315 C50.9074,60.276 50.7936,60.172 50.7077,60.078 C50.5085,59.859 50.3868,59.572 50.3036,59.286 C50.1208,58.659 50.1957,57.907 50.7976,57.563 C51.078,57.403 51.9181,57.403 52.252,57.482 C52.6032,57.566 53.0013,58.378 53.0208,58.454 C53.033,58.501 53.0269,58.56 53.0683,58.591 C53.1593,58.66 53.3094,58.54 53.3765,58.481 C53.4923,58.379 53.5749,58.242 53.6465,58.105 C53.8024,57.804 53.9281,57.482 54.0168,57.153 C54.0853,56.8991 54.1291,56.6375 54.2185,56.3903 C54.3075,56.1444 54.4479,55.9245 54.6661,55.7852 C54.9034,55.6336 55.1755,55.5538 55.4361,55.4585 C55.6944,55.3641 55.9482,55.2487 56.1485,55.0484 C56.1925,55.0044 56.2352,54.9576 56.2707,54.9057 C56.2986,54.8648 56.3263,54.7864 56.3689,54.7605 C56.4352,54.7201 56.5319,54.8251 56.5892,54.8632 C56.8718,55.0513 57.1077,55.3137 57.2979,55.6003 C57.4871,55.8854 57.6423,56.1597 57.7684,56.478 C57.8619,56.7141 57.9203,57.016 58.0849,57.21 C58.1583,57.296 58.7044,57.349 58.8812,57.273 C59.0581,57.198 59.2563,57.002 59.3157,56.8791 C59.3764,56.7535 59.391,56.6155 59.365,56.478 C59.3497,56.3971 59.3185,56.3215 59.3015,56.2421 C59.2871,56.1753 59.2741,56.1122 59.2431,56.0511 C59.1843,55.9352 59.0839,55.8519 58.9628,55.8171 C59.0888,55.6953 59.1932,55.5497 59.2655,55.3869 C59.3405,55.2178 59.4041,55.0121 59.4222,54.8265 C59.4369,54.6757 59.4142,54.5195 59.3355,54.39 C59.2528,54.2541 59.1065,54.1654 58.9798,54.0806 C59.1733,53.922 59.3388,53.7291 59.475,53.5156 C59.7397,53.1003 59.9034,52.5768 59.769,52.0817 Z" id="Shape" fill="url(#linearGradient-1)"></path>
            <path d="M34.9834,97.809 L59.6029,97.809 C61.4947,97.809 63.0282,99.416 63.0282,101.398 L63.0282,122.036 C63.0282,124.018 61.4947,125.625 59.6029,125.625 L34.9834,125.625 C33.0917,125.625 31.5581,124.018 31.5581,122.036 L31.5581,101.398 C31.5581,99.416 33.0917,97.809 34.9834,97.809 Z M38.4087,104.09 C37.9358,104.09 37.5524,104.491 37.5524,104.987 L37.5524,118.446 C37.5524,118.942 37.9358,119.344 38.4087,119.344 L56.1776,119.344 C56.6505,119.344 57.0339,118.942 57.0339,118.446 L57.0339,104.987 C57.0339,104.491 56.6505,104.09 56.1776,104.09 L38.4087,104.09 Z" id="Shape" fill="#C5CFD6"></path>
            <path d="M78.3372,124.875 C75.5942,118.514 73.6105,112.975 72.8143,110.052 C71.4509,105.048 70.4137,100.645 70.1516,99 C69.5265,95.079 74.9603,94.851 75.6785,96.799 C76.7656,99.749 78.6634,109.44 80.9437,124.079 L78.3372,124.875 Z M46.5201,104.911 C49.0368,103.869 57.8501,100.607 62.1008,99.684 C63.3222,99.419 64.5061,99.173 65.6192,98.95 C68.9276,98.288 70.6417,104.542 67.4553,105.023 C59.5199,106.219 48.2701,107.455 47.3074,107.594 C45.9581,107.788 44.9384,105.566 46.5201,104.911 Z" id="Shape" fill="#EACDB3"></path>
            <path d="M67.6498,97.229 L54.0369,89.967 L54.0369,88.387 L55.6558,88.387 C68.8257,91.903 75.5554,94.157 75.8452,95.147 C75.8483,95.158 75.8511,95.169 75.8537,95.179 C75.8604,95.188 75.8669,95.198 75.8733,95.207 C78.4833,98.968 80.0464,117.331 80.5594,118.706 L75.5581,119.487 C73.645,112.054 67.5241,106.875 67.6867,97.972 C67.6428,97.711 67.6317,97.463 67.6498,97.229 Z" id="Shape" fill="#070D37"></path>
            <path d="M55.1678,101.541 C53.9223,101.28 52.7753,101.047 51.7938,100.866 C45.4541,99.701 43.6054,96.145 44.6984,88.387 L56.3792,88.387 C58.2873,88.961 68.2035,93.318 73.3484,95.636 C76.7536,97.17 75.6802,102.7 73.7518,104.139 C73.7414,104.227 73.7067,104.287 73.6449,104.314 C63.2716,108.819 55.0654,106.455 52.3241,107.21 L51.0561,103.019 L55.1678,101.541 Z" id="Shape" fill="#0A114B"></path>
            <path d="M47.4257,104.258 C46.7378,104.335 46.2488,104.447 45.9588,104.597 C45.606,104.779 45.1191,105.104 44.498,105.573 C44.692,105.993 46.4348,109.768 49.7267,116.896 C50.8104,116.702 51.2437,116.269 51.0266,115.596 C50.8094,114.923 50.6344,114.361 50.5017,113.91 L50.3576,107.47 C50.3549,107.346 50.2557,107.25 50.1362,107.256 L50.1301,107.256 L49.1742,107.33 C48.6364,106.88 48.2828,106.472 48.1134,106.105 C47.9757,105.807 47.9029,105.335 47.895,104.689 L47.895,104.689 C47.892,104.441 47.6957,104.247 47.4566,104.256 C47.4463,104.256 47.436,104.257 47.4257,104.258 Z" id="Shape" fill="#8F6E5D"></path>
            <path d="M77.0888,123.696 C76.8492,124.366 76.7295,124.867 76.7295,125.199 C76.7295,125.604 76.7938,126.194 76.9224,126.97 L88.9971,126.97 C89.3109,125.883 89.1297,125.297 88.4537,125.21 C87.7776,125.123 87.2161,125.045 86.7689,124.975 L81.1567,122.353 C81.0487,122.303 80.9222,122.354 80.874,122.467 C80.8732,122.469 80.8724,122.471 80.8716,122.473 L80.5109,123.39 C79.885,123.696 79.3765,123.849 78.9852,123.849 C78.6673,123.849 78.2283,123.714 77.6681,123.445 L77.6681,123.445 C77.4532,123.342 77.199,123.441 77.1005,123.666 C77.0962,123.676 77.0923,123.686 77.0888,123.696 Z" id="Shape" fill="#8F6E5D"></path>
            <path d="M66.4632,84.824 L72.5277,91.023 C74.2923,91.812 75.7381,92.683 76.8651,93.636 C77.1186,93.956 77.3945,94.57 76.202,94.296 C75.0095,94.021 73.7434,93.788 73.5193,94.194 C73.2951,94.601 73.9555,95.224 73.5413,95.755 C73.2652,96.11 72.3365,94.982 70.7553,92.372 L64.449,88.476 L66.4632,84.824 Z M39.5452,85.698 L44.019,85.717 C41.2567,95.061 39.7654,100.019 39.5452,100.59 C39.0499,101.877 40.0981,103.836 40.5464,104.889 C39.0864,105.573 39.2419,103.038 37.4001,103.936 C35.719,104.756 34.4402,106.24 32.4979,104.985 C32.2591,104.83 31.9974,104.249 32.6297,103.795 C34.2048,102.663 36.4747,100.682 36.7814,100.03 C37.1997,99.141 38.1209,94.364 39.5452,85.698 Z" id="Shape" fill="#EACDB3"></path>
            <path d="M52.2592,66.028 L54.1103,65.695 C57.2975,74.038 62.862,81.618 70.8037,88.436 L64.8025,96.076 C56.8617,86.368 51.967,76.352 52.2592,66.028 Z" id="Shape" fill="url(#linearGradient-2)"></path>
            <path d="M44.189,90.405 L60.6733,90.405 C56.8543,80.675 54.9448,72.409 54.9448,65.608 L49.9722,64.832 C46.0643,71.418 44.9607,79.526 44.189,90.405 Z" id="Shape" fill="#DDE3E9"></path>
            <path d="M49.8672,64.836 C49.8678,64.834 49.8685,64.833 49.8691,64.832 L50.1937,64.832 C50.5821,64.846 51.1737,64.871 51.9684,64.908 L53.17,68.506 C53.2971,72.893 54.0393,81.733 55.3966,95.027 L44.5908,95.027 C44.6191,95.946 44.6658,96.872 44.7309,97.808 L36.6963,97.808 C37.8981,83.6 42.2871,72.608 49.8632,64.832 L49.8672,64.836 L49.8672,64.836 Z" id="Shape" fill="url(#linearGradient-3)"></path>
            <path d="M45.3046,83.279 C45.6122,89.003 46.3821,92.949 47.6145,95.116 L44.5936,95.116 C44.4614,90.998 44.6984,87.053 45.3046,83.279 L45.3046,83.279 Z" id="Shape" fill-opacity="0.1" fill="#000000"></path>
            <polygon id="Shape" fill-opacity="0.2" fill="#FFFFFF" points="46.9961 88.162 52.3244 85.566 52.3244 88.162"></polygon>
            <path d="M69.8187,48.3951 C70.3123,49.6334 69.5183,50.7092 68.8967,51.3442 C68.35,51.9026 67.6424,52.4232 67.0115,52.8604 C69.1775,52.6485 72.9588,52.1211 76.8402,51.4689 C79.2646,51.0615 81.7026,50.6098 83.7727,50.1644 C85.8656,49.714 87.5149,49.2839 88.4046,48.9293 C92.9352,47.1232 96.652,44.6526 99.007,42.1612 C101.425,39.603 102.152,37.3264 101.526,35.7556 C100.9,34.1849 98.806,33.0332 95.291,32.84 C91.8677,32.6519 87.4709,33.4154 82.9402,35.2215 C78.4096,37.0275 74.6933,39.4981 72.3383,41.9896 C69.9202,44.5478 69.1926,46.8243 69.8187,48.3951 Z" id="Shape" stroke="#C4C4C4" stroke-width="2" fill-opacity="0.6" fill="#FFFDFD" fill-rule="nonzero"></path>
            <path d="M115.864,60.834 C115.624,61.46 115.726,62.067 115.96,62.566 C116.184,63.043 116.542,63.46 116.908,63.811 C117.491,64.368 118.238,64.89 118.909,65.331 C116.626,65.105 112.655,64.556 108.58,63.882 C103.424,63.029 98.322,62.011 96.366,61.261 C91.5508,59.415 87.5663,56.9011 85.0092,54.3696 C83.7295,53.1028 82.842,51.8659 82.3672,50.7425 C81.8951,49.6254 81.8528,48.6815 82.1491,47.9087 C82.4454,47.1358 83.1078,46.4621 84.2057,45.9469 C85.3099,45.4288 86.7967,45.1022 88.5953,45.0155 C92.1893,44.8422 96.833,45.6362 101.648,47.482 C106.463,49.3279 110.447,51.8418 113.004,54.3733 C114.284,55.6401 115.172,56.877 115.646,58 C116.119,59.118 116.161,60.061 115.864,60.834 Z" id="Shape" stroke="#C4C4C4" stroke-width="2" fill-opacity="0.6" fill="#FFFDFD" fill-rule="nonzero"></path>
            <path d="M134.939,63.434 C136.038,62.243 136.619,60.662 136.556,59.041 C136.218,54.2087 129.51,55.2722 128.204,57.711 C126.898,60.151 127.057,66.352 128.741,66.771 C129.403,66.944 130.849,66.518 132.307,65.641 L131.392,72.135 L136.795,72.135 L134.939,63.434 Z" id="Shape" fill="#F2E2D4" opacity="0.9"></path>
            <path d="M131.334,54.8455 C132.051,54.7256 133.99,54.6456 134.322,54.6456 C134.547,54.6456 134.793,54.6989 134.932,54.4856 C135.072,54.2724 134.999,54.0258 135.032,53.8191 C135.065,53.6125 135.125,53.3593 135.178,53.1527 C135.332,52.5084 135.576,51.8892 135.902,51.3132 C136.5,50.2374 137.433,49.3877 138.557,48.8938 C139.841,48.3794 141.231,48.1873 142.606,48.334 C144.022,48.5184 145.41,48.872 146.742,49.387 C148.04,49.8362 149.425,49.9709 150.785,49.7803 C152.159,49.567 153.201,48.8139 154.363,48.1074 C155.54,47.3249 156.936,46.9396 158.346,47.0077 C159.645,47.1482 160.886,47.6209 161.951,48.3806 C162.98,49.0106 163.792,49.9406 164.281,51.0466 C164.56,51.6354 164.677,52.2888 164.618,52.9384 C164.56,53.5879 164.329,54.2098 163.949,54.7389 C162.741,56.3251 160.484,56.7383 158.638,56.6917 C157.558,56.6672 156.489,56.4691 155.472,56.1052 C154.154,55.5444 152.879,54.8896 151.655,54.1457 C151.059,53.8349 150.434,53.5848 149.789,53.3993 C149.497,53.2791 149.181,53.2275 148.866,53.2483 C148.551,53.2691 148.244,53.3617 147.97,53.5192 C147.403,53.9454 146.785,54.2991 146.131,54.5723 C145.472,54.8223 144.772,54.9488 144.067,54.9455 C142.694,54.8398 141.335,54.5965 140.011,54.219 C138.919,53.9103 137.776,53.8287 136.652,53.9791 C136.194,54.0724 135.517,54.2657 135.324,54.7456 C138.132,55.2587 139.234,58.744 138.444,61.304 C138.019,62.69 135.45,64.303 134.461,63.576 C133.797,63.117 134.216,62.51 134.461,62.117 C134.939,61.35 135.125,60.371 134.222,59.837 C133.459,59.378 132.662,60.471 132.642,60.464 C131.39,59.862 130.281,58.999 129.389,57.931 C128.161,58.005 127.975,57.192 128.268,56.5251 C128.56,55.8586 130.352,54.9855 131.334,54.8455 Z" id="Shape" fill="#191847"></path>
            <path d="M111.286,96.534 C109.776,94.487 106.002,95.842 106.005,97.537 C106.011,101.988 110.072,123.116 110.284,124.45 C110.496,125.784 112.768,126.221 112.9,124.554 C113.111,121.902 113.502,112.708 113.11,108.431 C112.996,107.181 112.876,105.974 112.754,104.842 C114.889,108.677 118.135,114.097 122.492,121.102 L124.913,119.996 C123.012,113.73 121.452,109.307 120.235,106.726 C118.152,102.307 116.198,98.522 115.375,97.189 C114.289,95.429 112.527,95.662 111.286,96.534 Z" id="Shape" fill="#B28B67"></path>
            <path d="M124.74,116.517 L116.429,96.827 C114.438,93.624 108.855,97.479 109.534,99.337 C111.076,103.554 118.916,117.209 119.375,118.465 L124.74,116.517 Z" id="Shape" fill="url(#linearGradient-4)"></path>
            <path d="M105.794,99.075 C105.794,104.656 108.241,117.775 108.242,119.003 L114.168,118.804 C113.132,107.398 112.696,101.656 112.858,101.579 C113.223,101.405 127.818,103.599 132.195,103.765 C138.508,104.003 141.119,100.131 141.331,92.782 L129.104,92.782 C118.649,94.03 111.777,94.898 108.489,95.386 C106.378,95.7 105.794,97.538 105.794,99.075 Z" id="Shape" fill="url(#linearGradient-5)"></path>
            <g id="Group" opacity="0.9" transform="translate(114.000000, 119.000000)" fill="url(#linearGradient-6)">
                <path d="M11.241,0.379 C11.621,0.932 11.849,1.359 11.925,1.662 C12.016,2.03 12.089,2.582 12.142,3.318 C11.716,3.425 7.88,4.381 0.635,6.188 C0.089,5.273 0.129,4.697 0.753,4.457 C1.378,4.218 1.896,4.013 2.306,3.843 L7.06,0.125 C7.151,0.054 7.284,0.07 7.355,0.161 C7.356,0.163 7.358,0.165 7.359,0.166 L7.911,0.914 C8.576,1.044 9.096,1.062 9.469,0.969 C9.772,0.894 10.159,0.667 10.632,0.289 L10.632,0.289 C10.814,0.144 11.078,0.174 11.223,0.355 C11.23,0.363 11.236,0.371 11.241,0.379 Z" id="Shape"></path>
            </g>
            <g id="Group" opacity="0.9" transform="translate(101.000000, 120.000000)" fill="url(#linearGradient-7)">
                <path d="M12.222,1.411 C12.457,2.039 12.574,2.509 12.574,2.821 C12.574,3.2 12.511,3.753 12.385,4.481 L0.525,4.481 C0.217,3.462 0.395,2.912 1.059,2.831 C1.723,2.749 2.274,2.676 2.714,2.61 L8.226,0.153 C8.332,0.106 8.456,0.153 8.504,0.259 C8.504,0.261 8.505,0.263 8.506,0.265 L8.86,1.124 C9.475,1.411 9.975,1.555 10.359,1.555 C10.671,1.555 11.102,1.429 11.653,1.176 L11.653,1.176 C11.864,1.08 12.113,1.172 12.21,1.383 C12.214,1.392 12.218,1.402 12.222,1.411 Z" id="Shape"></path>
            </g>
            <path d="M102.955,124.481 L112.628,124.481 C113.035,124.481 113.364,124.811 113.364,125.217 C113.364,125.624 113.035,125.953 112.628,125.953 L102.955,125.953 C102.549,125.953 102.219,125.624 102.219,125.217 C102.219,124.811 102.549,124.481 102.955,124.481 Z" id="Shape" fill="#2F3676" fill-rule="nonzero"></path>
            <path d="M141.962,93.991 L119.462,93.991 C118.301,93.991 117.36,94.933 117.36,96.094 L117.36,106.397 L143.223,106.397 C143.688,106.397 144.064,106.021 144.064,105.556 L144.064,96.094 C144.064,94.933 143.123,93.991 141.962,93.991 Z" id="Shape" fill="url(#linearGradient-8)"></path>
            <path d="M119.462,93.991 L119.001,93.991 C117.971,93.991 117.093,94.737 116.926,95.753 L112.313,123.85 L114.56,123.85" id="Shape" fill="url(#linearGradient-9)"></path>
            <path d="M113.364,128.055 C111.274,128.055 109.579,126.361 109.579,124.27 C109.579,122.18 111.274,120.485 113.364,120.485 C115.455,120.485 117.149,122.18 117.149,124.27 C117.149,126.361 115.455,128.055 113.364,128.055 Z" id="Shape" fill="#191847" fill-rule="nonzero"></path>
            <path d="M141.331,127.636 C150.157,127.636 157.312,120.481 157.312,111.655 C157.312,102.829 150.157,95.674 141.331,95.674 C132.505,95.674 125.35,102.829 125.35,111.655 C125.35,120.481 132.505,127.636 141.331,127.636 Z M141.331,124.692 C134.13,124.692 128.294,118.855 128.294,111.655 C128.294,104.455 134.13,98.618 141.331,98.618 C148.531,98.618 154.368,104.455 154.368,111.655 C154.368,118.855 148.531,124.692 141.331,124.692 Z" id="Shape" fill="url(#linearGradient-8)"></path>
            <polygon id="Shape" fill="url(#linearGradient-8)" fill-rule="nonzero" points="140.49 97.776 142.172 97.776 142.172 125.533 140.49 125.533"></polygon>
            <path d="M131.22,102.139 L131.815,101.544 C131.979,101.38 132.245,101.38 132.41,101.544 L151.442,120.576 C151.606,120.741 151.606,121.007 151.442,121.171 L150.847,121.766 C150.683,121.93 150.416,121.93 150.252,121.766 L131.22,102.734 C131.056,102.57 131.056,102.303 131.22,102.139 Z" id="Shape" fill="url(#linearGradient-10)" fill-rule="nonzero"></path>
            <path d="M127.453,112.075 L127.453,111.234 C127.453,111.002 127.641,110.813 127.873,110.813 L154.789,110.813 C155.021,110.813 155.209,111.002 155.209,111.234 L155.209,112.075 C155.209,112.307 155.021,112.496 154.789,112.496 L127.873,112.496 C127.641,112.496 127.453,112.307 127.453,112.075 Z" id="Shape" fill="url(#linearGradient-11)" fill-rule="nonzero"></path>
            <path d="M131.815,121.765 L131.22,121.17 C131.056,121.006 131.056,120.74 131.22,120.576 L150.252,101.544 C150.416,101.38 150.682,101.38 150.847,101.544 L151.441,102.139 C151.606,102.303 151.606,102.569 151.441,102.733 L132.409,121.765 C132.245,121.929 131.979,121.929 131.815,121.765 Z" id="Shape" fill="url(#linearGradient-12)" fill-rule="nonzero"></path>
            <path d="M150.985,85.774 L146.308,86.698 C150.985,95.432 153.493,100.063 153.832,100.589 C154.6,101.767 153.885,103.936 153.618,105.068 C155.275,105.449 154.62,102.959 156.712,103.481 C158.623,103.957 160.239,105.175 162.017,103.535 C162.237,103.327 162.398,102.698 161.649,102.377 C159.792,101.567 157.046,100.06 156.605,99.471 C156.017,98.668 154.144,94.102 150.985,85.774 Z M117.724,84.777 L109.499,81.155 C108.263,79.876 106.858,78.773 105.323,77.874 C104.923,77.747 104.234,77.707 104.969,78.778 C105.704,79.849 106.419,81.008 106.125,81.382 C105.831,81.757 104.989,81.342 104.655,81.951 C104.435,82.36 105.858,82.849 108.938,83.411 L115.099,88.144 L117.724,84.777 Z" id="Shape" fill="#F4E5D9" opacity="0.9"></path>
            <path d="M133.802,68.413 L131.842,68.081 C127.576,72.206 125.843,82.109 122.997,83.424 C120.331,84.666 116.498,83.464 111.965,81.843 L110.579,84.932 C114.692,89.369 123.463,93.115 127.016,90.976 C132.695,87.555 134.008,75.334 133.802,68.413 Z" id="Shape" fill="url(#linearGradient-13)"></path>
            <path d="M142.2,92.946 L124.989,92.946 C124.201,92.946 124.327,91.813 124.466,91.237 C125.79,84.613 130.9,77.485 130.9,68.052 L135.865,67.271 C139.976,73.882 141.386,82.016 142.2,92.946 Z" id="Shape" fill="#DDE3E9"></path>
            <path d="M143.957,86.274 C147.496,92.619 150.472,97.185 152.885,99.973 L156.525,99.27 C154.183,84.822 147.394,74.156 136.157,67.271 L134.154,67.271 C129.658,82.501 128.418,92.652 130.434,97.723 L146.067,97.723 C145.763,93.844 145.056,90.008 143.957,86.274 Z" id="Shape" fill="url(#linearGradient-14)"></path>
        </g>
    </g>
</svg>