<svg width="150" height="121" viewBox="0 0 150 121" fill="none" xmlns="http://www.w3.org/2000/svg">
<path fill-rule="evenodd" clip-rule="evenodd" d="M147.691 25.7146C147.577 25.6315 147.306 25.602 147.179 25.5771C146.655 25.4737 146.115 25.4287 145.58 25.4287C143.932 25.4312 142.256 25.593 140.635 25.8731C139.606 26.0509 138.362 26.6492 137.338 26.3243C135.554 25.7581 133.751 25.7859 132.059 26.5942C130.511 27.3333 129.337 28.7371 128.651 30.2539C128.548 30.4828 128.128 31.3255 128.009 31.8936C127.959 32.0098 127.91 32.1267 127.866 32.2454C127.741 32.5824 127.629 32.9254 127.525 33.269C127.481 33.4156 127.369 33.7392 127.502 33.8018C127.29 34.1932 127.102 34.5965 126.945 35.0129C126.49 36.224 125.992 37.5525 125.832 38.8361C125.773 39.3114 125.77 39.7894 125.825 40.2657C125.853 40.501 125.841 40.9744 126.001 41.1533C126.34 41.5331 126.513 41.0015 126.475 40.7482C126.184 38.8183 126.747 37.006 127.414 35.1918C127.845 34.0187 128.554 32.9455 129.348 31.9736C129.991 31.1868 130.68 30.5673 131.561 30.0456C132.639 29.4078 133.79 28.8921 134.932 28.3749C135.682 28.0345 136.434 27.7033 137.205 27.4101C137.377 27.3449 137.647 27.1776 137.837 27.1769C138.239 27.1755 138.809 27.4723 139.198 27.5828C140.476 27.9461 141.77 28.4113 143.091 28.5969C143.938 28.716 144.732 28.5819 145.524 28.2997C145.605 28.2709 145.741 28.1968 145.907 28.0909C146.495 27.8647 147.052 27.5799 147.536 27.169C147.816 26.9323 148.069 26.6264 148.3 26.3463C148.369 26.2626 148.4 26.1667 148.401 26.0755C148.453 26.0481 148.488 26.0162 148.496 25.9789C148.553 25.7033 148.028 25.6982 147.691 25.7146Z" fill="#89C5CC"/>
<path fill-rule="evenodd" clip-rule="evenodd" d="M13.7728 48.6867C13.4494 48.9486 13.1322 49.2162 12.8227 49.4945C12.5868 49.7067 12.1694 49.9606 12.0848 50.282C11.9968 50.616 12.2746 50.9286 12.4941 51.1306C13.6549 52.1985 14.962 52.9205 16.5705 53.0406C19.0472 53.2255 21.2026 52.5931 23.3514 51.3486C24.8609 50.4744 25.8607 49.1813 26.0791 47.4353C27.8767 48.1824 29.6153 49.2122 31.0928 50.476C31.8218 51.0997 32.4496 51.7906 33.0304 52.5564C33.4023 53.047 33.7621 53.5456 34.096 54.0632C34.2412 54.2881 34.3887 54.687 34.6283 54.8165C34.9096 54.9687 35.2496 54.7302 35.2357 54.4174C35.2241 54.1571 34.943 53.8552 34.8116 53.6424C34.5933 53.289 34.3717 52.9379 34.1384 52.5942C33.7608 52.0379 33.3706 51.4894 32.945 50.9686C31.9886 49.7988 30.7716 48.8324 29.5101 48.0084C27.09 46.4274 24.4339 45.4314 21.4892 45.347C19.6785 45.2951 18.1552 45.9137 16.6068 46.8376C15.6428 47.4128 14.6476 47.9783 13.7728 48.6867Z" fill="#DDE3E9"/>
<path fill-rule="evenodd" clip-rule="evenodd" d="M37.2607 41.0399C35.3738 39.0967 33.4803 37.1776 31.3721 35.4665C30.1297 34.4582 28.8203 33.5414 27.538 32.5853C27.686 32.7149 27.8311 32.8483 27.9727 32.9849C27.5724 32.7132 27.0484 32.5596 26.624 32.3081C26.1507 32.0276 25.6982 31.7067 25.2544 31.3832C24.3881 30.7519 23.5348 30.1087 22.6443 29.5103C21.6521 28.8437 20.6238 28.2278 19.6148 27.5864C18.7584 27.042 17.8915 26.4461 16.9754 26.0011C16.4761 25.7585 15.9756 25.471 15.4742 25.218C15.3064 25.1333 13.6037 24.0582 13.608 24.055C13.7021 23.984 14.559 24.3866 14.6914 24.4408C15.0785 24.5989 15.4487 24.788 15.8208 24.9765C15.6165 24.5736 15.4549 24.1503 15.3668 23.7048C15.3397 23.5672 15.1218 22.566 15.2333 22.482C15.289 22.4401 15.8322 24.2314 15.86 24.4036C15.8826 24.5435 15.8793 24.7449 15.9251 24.8774C15.999 25.0913 15.9953 25.0267 16.1581 25.1472C16.4566 25.3681 16.8529 25.5061 17.176 25.6908C17.3502 25.7881 17.8896 26.1737 18.2145 26.2837C19.1975 26.7611 20.1939 27.4957 21.1279 28.1055C20.8828 27.6448 20.6962 27.1631 20.5602 26.6583C20.5278 26.5384 20.1787 25.4632 20.2634 25.3994C20.3588 25.3276 21.0239 26.9697 21.0633 27.1251C21.1365 27.4139 21.1517 27.7353 21.2434 28.0163C21.344 28.3246 21.6578 28.4339 21.9407 28.6137C22.9816 29.275 23.9867 29.9777 24.9751 30.7127C26.0535 28.7947 24.81 26.4786 23.762 24.8693C23.0067 23.7095 21.9897 22.7151 20.9159 21.847C19.4829 20.6885 17.8434 19.7629 16.2058 18.9163C14.2977 17.9299 12.2354 17.3186 10.0914 17.0363C8.97007 16.8886 7.82286 16.8927 6.69018 16.9401C6.13685 16.9632 5.60576 17.0365 5.0755 17.2169C4.83651 17.2983 4.60554 17.401 4.38045 17.5159C4.20943 17.6032 3.79572 17.6953 3.6974 17.8254C2.88797 18.8789 2.47388 19.9287 2.53711 21.2526C2.59691 22.5058 2.9927 23.7596 3.52982 24.8774C4.12799 26.1222 4.89734 27.2519 5.9035 28.2C6.67116 28.9235 7.5294 29.5531 8.38199 30.1744C11.4144 32.3844 15.2589 34.3064 19.1864 33.8126C20.4577 33.6529 21.6669 33.2082 22.7969 32.6041C23.0631 32.4617 23.3278 32.3177 23.5791 32.1496C23.7486 32.0363 24.2016 31.5257 24.3721 31.5072C24.6057 31.4817 25.109 31.9569 25.3282 32.1016C26.994 33.2012 28.6162 34.3604 30.2043 35.5665C31.894 36.8497 33.5008 38.2202 35.0603 39.6551C35.7236 40.2655 36.3827 40.8772 37.0267 41.508C37.1766 41.6547 37.5433 42.1952 37.8152 42.2197C37.9871 42.2352 38.103 42.0884 38.0785 41.9293C38.0358 41.6527 37.4539 41.2389 37.2607 41.0399Z" fill="#C1DEE2"/>
<path fill-rule="evenodd" clip-rule="evenodd" d="M145.71 33.4978C144.979 33.3381 144.172 33.3504 143.428 33.3635C139.435 33.4178 135.514 35.3083 132.962 38.3289C130.789 40.9004 130.192 44.0975 129.763 47.3294C129.72 47.6502 129.702 47.9691 129.678 48.2906C129.673 48.3596 129.665 48.4212 129.657 48.4791C129.488 48.63 129.4 48.806 129.5 48.9992C129.128 49.8129 128.813 50.6472 128.543 51.5077C127.749 54.0406 126.941 56.6216 127.439 59.285C127.555 57.8193 127.8 56.3205 128.092 54.8789C128.109 54.7962 128.127 54.714 128.146 54.6322C128.148 54.6236 128.15 54.615 128.152 54.6064C128.255 54.1649 128.39 53.7367 128.554 53.3152C128.555 53.3106 128.557 53.306 128.559 53.3015C128.58 53.246 128.603 53.1908 128.626 53.1357C128.673 53.0214 128.721 52.9074 128.772 52.794C128.789 52.7553 128.806 52.7163 128.822 52.677C129.06 52.0929 129.161 51.4348 129.374 50.8304C129.426 50.6929 129.479 50.556 129.535 50.4198C129.538 50.4119 129.542 50.4039 129.545 50.3959C129.696 50.0294 129.863 49.6674 130.04 49.3092C130.136 49.2371 130.187 49.0581 130.27 48.8954C130.287 48.8633 130.421 48.6496 130.461 48.5264C130.565 48.3252 130.668 48.1239 130.773 47.923C130.77 47.9242 130.767 47.9253 130.764 47.9265C130.869 47.7336 130.974 47.5415 131.078 47.3502C131.101 47.3082 131.124 47.2661 131.147 47.224C131.185 47.1569 131.222 47.0898 131.26 47.023C131.609 46.3971 131.98 45.7837 132.365 45.1779C132.503 44.9617 132.831 44.6517 132.894 44.409C132.896 44.3999 132.897 44.3916 132.898 44.3829C133.734 43.2092 134.696 42.1266 135.85 41.2688C135.71 41.4195 135.414 41.9311 135.336 42.0324C135.096 42.3425 134.835 42.6312 134.574 42.9234C134.106 43.4469 133.649 43.9869 133.243 44.558C132.5 45.6024 131.86 46.7016 131.254 47.8228C131.248 47.8294 131.242 47.8356 131.237 47.8423C130.932 48.2175 130.741 48.7846 130.522 49.2138C131.389 48.8122 132.347 48.5506 133.237 48.194C134.125 47.8385 134.988 47.4426 135.821 46.9777C136.929 46.3598 138.078 45.6622 139.125 44.8727C140.324 44.1287 141.332 43.1047 142.222 42.03C143.275 40.7586 144.239 39.4759 144.836 37.9321C145.129 37.1735 145.36 36.3824 145.496 35.5821C145.502 35.5472 145.51 35.5094 145.518 35.4701C145.658 35.1937 145.783 34.9111 145.888 34.6219C146.055 34.1634 146.448 33.659 145.71 33.4978Z" fill="#69A1AC"/>
<path fill-rule="evenodd" clip-rule="evenodd" d="M21.8589 38.8699C21.6299 38.622 21.3727 38.3983 21.0708 38.2387C20.9944 38.1984 20.4258 37.9283 20.3888 37.9875C20.3025 38.1256 21.7901 38.7908 21.8589 38.8699ZM24.5549 37.2137C24.553 37.2242 24.7502 37.5588 24.8038 37.6616C24.9181 37.8803 25.0236 38.1033 25.1228 38.3267C24.9759 37.9321 24.825 37.5662 24.5549 37.2137ZM10.7667 39.9371C10.5768 39.9982 10.3485 39.7572 10.5948 39.6978C10.7941 39.6502 10.7844 39.6389 10.8739 39.4784C10.9465 39.348 10.9913 39.189 11.0551 39.0522C11.1903 38.7621 11.3437 38.4854 11.5321 38.2261C11.9357 37.6702 12.4275 37.1912 12.979 36.7876C13.9416 36.0833 15.0209 35.4395 16.1658 35.1161C17.9862 34.6019 20.0581 34.5701 21.8813 34.9267C23.0105 35.1475 24.0424 35.5313 24.7922 36.4405C25.167 36.8948 25.4611 37.4272 25.5897 38.0133C25.6233 38.1665 25.617 38.3369 25.659 38.4869C25.7236 38.7175 25.6951 38.6561 25.9649 38.701C26.2594 38.7499 26.5537 38.8 26.8479 38.8508C27.6182 38.9841 28.393 39.1255 29.1436 39.3418C29.3906 39.4129 29.6323 39.4998 29.8683 39.6009C30.0468 39.6772 30.7576 39.9169 30.8439 40.1488C30.9877 40.5347 30.506 40.3598 30.3563 40.2757C30.2252 40.2021 30.0906 40.1334 29.954 40.0702C29.6101 39.9111 29.2518 39.788 28.8854 39.69C28.4895 39.5841 28.0854 39.505 27.6829 39.4259C27.3076 39.3521 26.9309 39.285 26.5536 39.2208C26.3441 39.1852 26.1343 39.1505 25.9246 39.1159C25.8529 39.104 25.7266 39.042 25.7361 39.1351C25.2952 39.0502 24.8183 39.0624 24.3691 39.039C23.819 39.0103 23.2668 38.9868 22.7148 39.004C22.3167 39.0164 21.9183 39.0425 21.5222 39.096C21.2907 39.1273 21.063 39.173 20.8359 39.2309C20.7112 39.2627 20.2193 39.3302 20.1513 39.4389C20.1805 39.3922 20.7234 39.4375 20.7925 39.4349C21.0688 39.4245 21.343 39.3971 21.6184 39.3664C22.1294 39.3093 22.6405 39.2795 23.1531 39.2838C23.1511 39.3738 22.801 39.5341 22.7156 39.5937C22.5239 39.7274 22.3404 39.8733 22.1692 40.0333C21.8675 40.3151 21.5063 40.6642 21.2977 40.9981C21.3592 40.8997 21.6625 40.7717 21.7702 40.6965C21.9426 40.576 22.1116 40.4475 22.2714 40.3101C22.419 40.1832 22.5567 40.0462 22.6921 39.9063C22.8275 39.7662 23.0113 39.475 23.1892 39.3818C23.2 39.3761 23.2775 39.4374 23.3216 39.4166C23.366 39.3956 23.4213 39.2907 23.4326 39.2864C23.5982 39.2225 23.9128 39.302 24.0869 39.31C24.5385 39.3308 24.9896 39.3581 25.4409 39.3829C25.5807 39.3906 25.6995 39.3588 25.7523 39.4619C25.8085 39.5719 25.7054 39.8609 25.6761 39.9807C25.5673 40.4256 25.374 40.8245 25.0699 41.1692C24.5002 41.8148 23.7977 42.2452 23.0042 42.5331C19.9647 43.6358 16.731 44.0774 13.6924 42.9304C12.4344 42.4554 10.5399 41.6068 10.7667 39.9371Z" fill="#89C5CC"/>
<path d="M61.7141 0.142578H31.0712C30.1244 0.142578 29.3569 0.91009 29.3569 1.85686V63.1426C29.3569 64.0894 30.1244 64.8569 31.0712 64.8569H61.7141C62.6608 64.8569 63.4284 64.0894 63.4284 63.1426V1.85686C63.4284 0.91009 62.6608 0.142578 61.7141 0.142578Z" fill="#F2F2F2"/>
<path d="M46.2856 60.785C48.0608 60.785 49.4999 59.3459 49.4999 57.5707C49.4999 55.7955 48.0608 54.3564 46.2856 54.3564C44.5104 54.3564 43.0713 55.7955 43.0713 57.5707C43.0713 59.3459 44.5104 60.785 46.2856 60.785Z" fill="white"/>
<path d="M43.4999 4.42843C43.7366 4.42843 43.9284 4.23655 43.9284 3.99986C43.9284 3.76317 43.7366 3.57129 43.4999 3.57129C43.2632 3.57129 43.0713 3.76317 43.0713 3.99986C43.0713 4.23655 43.2632 4.42843 43.4999 4.42843Z" fill="white"/>
<path d="M49.0714 3.57129H45.4286C45.1919 3.57129 45 3.76317 45 3.99986C45 4.23655 45.1919 4.42843 45.4286 4.42843H49.0714C49.3081 4.42843 49.5 4.23655 49.5 3.99986C49.5 3.76317 49.3081 3.57129 49.0714 3.57129Z" fill="white"/>
<path d="M59.5712 6.14258H33.2141C32.7407 6.14258 32.3569 6.52633 32.3569 6.99972V16.8569C32.3569 17.3303 32.7407 17.714 33.2141 17.714H59.5712C60.0446 17.714 60.4284 17.3303 60.4284 16.8569V6.99972C60.4284 6.52633 60.0446 6.14258 59.5712 6.14258Z" fill="white"/>
<path d="M55.7139 9.61426H41.3567C41.0017 9.61426 40.7139 9.90207 40.7139 10.2571V10.7071C40.7139 11.0622 41.0017 11.35 41.3567 11.35H55.7139C56.0689 11.35 56.3567 11.0622 56.3567 10.7071V10.2571C56.3567 9.90207 56.0689 9.61426 55.7139 9.61426Z" fill="#DDE3E9"/>
<path d="M50.571 12.5068H41.3567C41.0017 12.5068 40.7139 12.7947 40.7139 13.1497V13.5997C40.7139 13.9547 41.0017 14.2426 41.3567 14.2426H50.571C50.9261 14.2426 51.2139 13.9547 51.2139 13.5997V13.1497C51.2139 12.7947 50.9261 12.5068 50.571 12.5068Z" fill="#DDE3E9"/>
<path d="M36.8566 14.4993C38.2767 14.4993 39.428 13.348 39.428 11.9279C39.428 10.5077 38.2767 9.35645 36.8566 9.35645C35.4364 9.35645 34.2852 10.5077 34.2852 11.9279C34.2852 13.348 35.4364 14.4993 36.8566 14.4993Z" fill="#C5CFD6"/>
<path d="M59.5712 19.4287H33.2141C32.7407 19.4287 32.3569 19.8125 32.3569 20.2859V27.5716C32.3569 28.045 32.7407 28.4287 33.2141 28.4287H59.5712C60.0446 28.4287 60.4284 28.045 60.4284 27.5716V20.2859C60.4284 19.8125 60.0446 19.4287 59.5712 19.4287Z" fill="white"/>
<path d="M55.7139 22.1289H41.3567C41.0017 22.1289 40.7139 22.4167 40.7139 22.7718V22.836C40.7139 23.1911 41.0017 23.4789 41.3567 23.4789H55.7139C56.0689 23.4789 56.3567 23.1911 56.3567 22.836V22.7718C56.3567 22.4167 56.0689 22.1289 55.7139 22.1289Z" fill="#DDE3E9"/>
<path d="M50.571 24.3789H41.3567C41.0017 24.3789 40.7139 24.6667 40.7139 25.0218V25.086C40.7139 25.4411 41.0017 25.7289 41.3567 25.7289H50.571C50.9261 25.7289 51.2139 25.4411 51.2139 25.086V25.0218C51.2139 24.6667 50.9261 24.3789 50.571 24.3789Z" fill="#DDE3E9"/>
<path d="M36.8571 26.5003C38.2772 26.5003 39.4285 25.349 39.4285 23.9289C39.4285 22.5087 38.2772 21.3574 36.8571 21.3574C35.4369 21.3574 34.2856 22.5087 34.2856 23.9289C34.2856 25.349 35.4369 26.5003 36.8571 26.5003Z" fill="#C5CFD6"/>
<path d="M59.5712 30.1426H33.2141C32.7407 30.1426 32.3569 30.5263 32.3569 30.9997V38.2854C32.3569 38.7588 32.7407 39.1426 33.2141 39.1426H59.5712C60.0446 39.1426 60.4284 38.7588 60.4284 38.2854V30.9997C60.4284 30.5263 60.0446 30.1426 59.5712 30.1426Z" fill="white"/>
<path d="M55.7139 32.8428H41.3567C41.0017 32.8428 40.7139 33.1306 40.7139 33.4856V33.5499C40.7139 33.905 41.0017 34.1928 41.3567 34.1928H55.7139C56.0689 34.1928 56.3567 33.905 56.3567 33.5499V33.4856C56.3567 33.1306 56.0689 32.8428 55.7139 32.8428Z" fill="#DDE3E9"/>
<path d="M50.571 35.0928H41.3567C41.0017 35.0928 40.7139 35.3806 40.7139 35.7356V35.7999C40.7139 36.155 41.0017 36.4428 41.3567 36.4428H50.571C50.9261 36.4428 51.2139 36.155 51.2139 35.7999V35.7356C51.2139 35.3806 50.9261 35.0928 50.571 35.0928Z" fill="#DDE3E9"/>
<path d="M36.8571 37.2141C38.2772 37.2141 39.4285 36.0629 39.4285 34.6427C39.4285 33.2226 38.2772 32.0713 36.8571 32.0713C35.4369 32.0713 34.2856 33.2226 34.2856 34.6427C34.2856 36.0629 35.4369 37.2141 36.8571 37.2141Z" fill="#AFB9C5"/>
<path d="M59.5712 40.8564H33.2141C32.7407 40.8564 32.3569 41.2402 32.3569 41.7136V48.9993C32.3569 49.4727 32.7407 49.8564 33.2141 49.8564H59.5712C60.0446 49.8564 60.4284 49.4727 60.4284 48.9993V41.7136C60.4284 41.2402 60.0446 40.8564 59.5712 40.8564Z" fill="white"/>
<path d="M55.7139 43.5566H41.3567C41.0017 43.5566 40.7139 43.8445 40.7139 44.1995V44.2638C40.7139 44.6188 41.0017 44.9066 41.3567 44.9066H55.7139C56.0689 44.9066 56.3567 44.6188 56.3567 44.2638V44.1995C56.3567 43.8445 56.0689 43.5566 55.7139 43.5566Z" fill="#DDE3E9"/>
<path d="M50.571 45.8066H41.3567C41.0017 45.8066 40.7139 46.0945 40.7139 46.4495V46.5138C40.7139 46.8688 41.0017 47.1566 41.3567 47.1566H50.571C50.9261 47.1566 51.2139 46.8688 51.2139 46.5138V46.4495C51.2139 46.0945 50.9261 45.8066 50.571 45.8066Z" fill="#DDE3E9"/>
<path d="M36.8571 47.928C38.2772 47.928 39.4285 46.7767 39.4285 45.3566C39.4285 43.9364 38.2772 42.7852 36.8571 42.7852C35.4369 42.7852 34.2856 43.9364 34.2856 45.3566C34.2856 46.7767 35.4369 47.928 36.8571 47.928Z" fill="#C5CFD6"/>
<path d="M127.714 11.0713H59.3574C58.4106 11.0713 57.6431 11.8388 57.6431 12.7856V83.4999C57.6431 84.4466 58.4106 85.2141 59.3574 85.2141H127.714C128.661 85.2141 129.429 84.4466 129.429 83.4999V12.7856C129.429 11.8388 128.661 11.0713 127.714 11.0713Z" fill="#F2F2F2"/>
<path d="M124.286 20.2852H112.714C111.768 20.2852 111 21.0527 111 21.9994V35.928C111 36.8748 111.768 37.6423 112.714 37.6423H124.286C125.232 37.6423 126 36.8748 126 35.928V21.9994C126 21.0527 125.232 20.2852 124.286 20.2852Z" fill="white"/>
<path d="M118.5 30.3571C120.393 30.3571 121.928 28.8221 121.928 26.9286C121.928 25.035 120.393 23.5 118.5 23.5C116.606 23.5 115.071 25.035 115.071 26.9286C115.071 28.8221 116.606 30.3571 118.5 30.3571Z" fill="#DDE3E9"/>
<path d="M123.214 31.2139H113.785C113.43 31.2139 113.143 31.5017 113.143 31.8567C113.143 32.2118 113.43 32.4996 113.785 32.4996H123.214C123.569 32.4996 123.857 32.2118 123.857 31.8567C123.857 31.5017 123.569 31.2139 123.214 31.2139Z" fill="#DDE3E9"/>
<path d="M121.5 33.3574H115.5C115.145 33.3574 114.857 33.6452 114.857 34.0003C114.857 34.3553 115.145 34.6431 115.5 34.6431H121.5C121.855 34.6431 122.143 34.3553 122.143 34.0003C122.143 33.6452 121.855 33.3574 121.5 33.3574Z" fill="#DDE3E9"/>
<path fill-rule="evenodd" clip-rule="evenodd" d="M59.3574 11.0713H127.714C128.661 11.0713 129.429 11.8388 129.429 12.7856V16.857H57.6431V12.7856C57.6431 11.8388 58.4106 11.0713 59.3574 11.0713Z" fill="#C5CFD6"/>
<path d="M60.4284 14.9282C60.9018 14.9282 61.2856 14.5444 61.2856 14.071C61.2856 13.5976 60.9018 13.2139 60.4284 13.2139C59.955 13.2139 59.5713 13.5976 59.5713 14.071C59.5713 14.5444 59.955 14.9282 60.4284 14.9282Z" fill="#F2F2F2"/>
<path d="M62.9997 14.9282C63.4731 14.9282 63.8569 14.5444 63.8569 14.071C63.8569 13.5976 63.4731 13.2139 62.9997 13.2139C62.5263 13.2139 62.1426 13.5976 62.1426 14.071C62.1426 14.5444 62.5263 14.9282 62.9997 14.9282Z" fill="#F2F2F2"/>
<path d="M65.571 14.9282C66.0444 14.9282 66.4282 14.5444 66.4282 14.071C66.4282 13.5976 66.0444 13.2139 65.571 13.2139C65.0976 13.2139 64.7139 13.5976 64.7139 14.071C64.7139 14.5444 65.0976 14.9282 65.571 14.9282Z" fill="#F2F2F2"/>
<path d="M124.286 39.3574H112.714C111.768 39.3574 111 40.1249 111 41.0717V79.2146C111 80.1613 111.768 80.9289 112.714 80.9289H124.286C125.232 80.9289 126 80.1613 126 79.2146V41.0717C126 40.1249 125.232 39.3574 124.286 39.3574Z" fill="white"/>
<path d="M121.286 43.2148H115.714C115.241 43.2148 114.857 43.5986 114.857 44.072V47.9291C114.857 48.4025 115.241 48.7863 115.714 48.7863H121.286C121.759 48.7863 122.143 48.4025 122.143 47.9291V44.072C122.143 43.5986 121.759 43.2148 121.286 43.2148Z" fill="#DDE3E9"/>
<path d="M121.286 50.501H115.714C115.241 50.501 114.857 50.8847 114.857 51.3581V55.001C114.857 55.4744 115.241 55.8581 115.714 55.8581H121.286C121.759 55.8581 122.143 55.4744 122.143 55.001V51.3581C122.143 50.8847 121.759 50.501 121.286 50.501Z" fill="#AFB9C5"/>
<path d="M121.286 57.5723H115.714C115.241 57.5723 114.857 57.956 114.857 58.4294V62.0723C114.857 62.5457 115.241 62.9294 115.714 62.9294H121.286C121.759 62.9294 122.143 62.5457 122.143 62.0723V58.4294C122.143 57.956 121.759 57.5723 121.286 57.5723Z" fill="#DDE3E9"/>
<path d="M121.286 71.7148H115.714C115.241 71.7148 114.857 72.0986 114.857 72.572V76.2148C114.857 76.6882 115.241 77.072 115.714 77.072H121.286C121.759 77.072 122.143 76.6882 122.143 76.2148V72.572C122.143 72.0986 121.759 71.7148 121.286 71.7148Z" fill="#DDE3E9"/>
<path d="M121.286 64.6436H115.714C115.241 64.6436 114.857 65.0273 114.857 65.5007V69.1436C114.857 69.6169 115.241 70.0007 115.714 70.0007H121.286C121.759 70.0007 122.143 69.6169 122.143 69.1436V65.5007C122.143 65.0273 121.759 64.6436 121.286 64.6436Z" fill="#C5CFD6"/>
<path d="M108.428 20.5H61.9284C61.455 20.5 61.0713 20.8838 61.0713 21.3571V29.7143C61.0713 30.1877 61.455 30.5714 61.9284 30.5714H108.428C108.902 30.5714 109.286 30.1877 109.286 29.7143V21.3571C109.286 20.8838 108.902 20.5 108.428 20.5Z" fill="white"/>
<path d="M98.1429 23.5215H63.6429C63.2878 23.5215 63 23.8093 63 24.1643V24.3893C63 24.7444 63.2878 25.0322 63.6429 25.0322H98.1429C98.4979 25.0322 98.7857 24.7444 98.7857 24.3893V24.1643C98.7857 23.8093 98.4979 23.5215 98.1429 23.5215Z" fill="#DDE3E9"/>
<path d="M86.3777 26.0391H63.6429C63.2878 26.0391 63 26.3269 63 26.6819V26.9069C63 27.262 63.2878 27.5498 63.6429 27.5498H86.3777C86.7327 27.5498 87.0205 27.262 87.0205 26.9069V26.6819C87.0205 26.3269 86.7327 26.0391 86.3777 26.0391Z" fill="#DDE3E9"/>
<path d="M104.133 27.0361C104.961 27.0361 105.633 26.3646 105.633 25.5361C105.633 24.7077 104.961 24.0361 104.133 24.0361C103.304 24.0361 102.633 24.7077 102.633 25.5361C102.633 26.3646 103.304 27.0361 104.133 27.0361Z" fill="#DDE3E9"/>
<path d="M104.133 26.1793C104.488 26.1793 104.776 25.8915 104.776 25.5364C104.776 25.1814 104.488 24.8936 104.133 24.8936C103.778 24.8936 103.49 25.1814 103.49 25.5364C103.49 25.8915 103.778 26.1793 104.133 26.1793Z" fill="#F2F2F2"/>
<path d="M108.428 32.2861H61.9284C61.455 32.2861 61.0713 32.6699 61.0713 33.1433V39.7861C61.0713 40.2595 61.455 40.6433 61.9284 40.6433H108.428C108.902 40.6433 109.286 40.2595 109.286 39.7861V33.1433C109.286 32.6699 108.902 32.2861 108.428 32.2861Z" fill="white"/>
<path d="M98.1589 34.793H63.6268C63.2806 34.793 63 35.0736 63 35.4198C63 35.7659 63.2806 36.0465 63.6268 36.0465H98.1589C98.5051 36.0465 98.7857 35.7659 98.7857 35.4198C98.7857 35.0736 98.5051 34.793 98.1589 34.793Z" fill="#DDE3E9"/>
<path d="M86.3938 36.8818H63.6268C63.2806 36.8818 63 37.1625 63 37.5086C63 37.8548 63.2806 38.1354 63.6268 38.1354H86.3938C86.7399 38.1354 87.0205 37.8548 87.0205 37.5086C87.0205 37.1625 86.7399 36.8818 86.3938 36.8818Z" fill="#DDE3E9"/>
<path d="M104.133 37.9648C104.961 37.9648 105.633 37.2933 105.633 36.4648C105.633 35.6364 104.961 34.9648 104.133 34.9648C103.304 34.9648 102.633 35.6364 102.633 36.4648C102.633 37.2933 103.304 37.9648 104.133 37.9648Z" fill="#DDE3E9"/>
<path d="M104.133 37.108C104.488 37.108 104.776 36.8202 104.776 36.4651C104.776 36.1101 104.488 35.8223 104.133 35.8223C103.778 35.8223 103.49 36.1101 103.49 36.4651C103.49 36.8202 103.778 37.108 104.133 37.108Z" fill="#F2F2F2"/>
<path d="M108.428 42.3574H61.9284C61.455 42.3574 61.0713 42.7412 61.0713 43.2146V49.8574C61.0713 50.3308 61.455 50.7146 61.9284 50.7146H108.428C108.902 50.7146 109.286 50.3308 109.286 49.8574V43.2146C109.286 42.7412 108.902 42.3574 108.428 42.3574Z" fill="white"/>
<path d="M98.1589 44.8643H63.6268C63.2806 44.8643 63 45.1449 63 45.491C63 45.8372 63.2806 46.1178 63.6268 46.1178H98.1589C98.5051 46.1178 98.7857 45.8372 98.7857 45.491C98.7857 45.1449 98.5051 44.8643 98.1589 44.8643Z" fill="#DDE3E9"/>
<path d="M86.3938 46.9531H63.6268C63.2806 46.9531 63 47.2337 63 47.5799C63 47.9261 63.2806 48.2067 63.6268 48.2067H86.3938C86.7399 48.2067 87.0205 47.9261 87.0205 47.5799C87.0205 47.2337 86.7399 46.9531 86.3938 46.9531Z" fill="#DDE3E9"/>
<path d="M104.133 48.0361C104.961 48.0361 105.633 47.3646 105.633 46.5361C105.633 45.7077 104.961 45.0361 104.133 45.0361C103.304 45.0361 102.633 45.7077 102.633 46.5361C102.633 47.3646 103.304 48.0361 104.133 48.0361Z" fill="#DDE3E9"/>
<path d="M104.133 47.1793C104.488 47.1793 104.776 46.8915 104.776 46.5364C104.776 46.1814 104.488 45.8936 104.133 45.8936C103.778 45.8936 103.49 46.1814 103.49 46.5364C103.49 46.8915 103.778 47.1793 104.133 47.1793Z" fill="#AFB9C5"/>
<path d="M108.428 72.5713H61.9284C61.455 72.5713 61.0713 72.955 61.0713 73.4284V80.0713C61.0713 80.5447 61.455 80.9284 61.9284 80.9284H108.428C108.902 80.9284 109.286 80.5447 109.286 80.0713V73.4284C109.286 72.955 108.902 72.5713 108.428 72.5713Z" fill="white"/>
<path d="M98.1589 75.0781H63.6268C63.2806 75.0781 63 75.3587 63 75.7049C63 76.0511 63.2806 76.3317 63.6268 76.3317H98.1589C98.5051 76.3317 98.7857 76.0511 98.7857 75.7049C98.7857 75.3587 98.5051 75.0781 98.1589 75.0781Z" fill="#DDE3E9"/>
<path d="M86.3938 77.167H63.6268C63.2806 77.167 63 77.4476 63 77.7938C63 78.1399 63.2806 78.4206 63.6268 78.4206H86.3938C86.7399 78.4206 87.0205 78.1399 87.0205 77.7938C87.0205 77.4476 86.7399 77.167 86.3938 77.167Z" fill="#DDE3E9"/>
<path d="M104.133 78.25C104.961 78.25 105.633 77.5784 105.633 76.75C105.633 75.9216 104.961 75.25 104.133 75.25C103.304 75.25 102.633 75.9216 102.633 76.75C102.633 77.5784 103.304 78.25 104.133 78.25Z" fill="#DDE3E9"/>
<path d="M104.133 77.3931C104.488 77.3931 104.776 77.1053 104.776 76.7503C104.776 76.3952 104.488 76.1074 104.133 76.1074C103.778 76.1074 103.49 76.3952 103.49 76.7503C103.49 77.1053 103.778 77.3931 104.133 77.3931Z" fill="#F2F2F2"/>
<path d="M108.428 62.5H61.9284C61.455 62.5 61.0713 62.8838 61.0713 63.3571V70C61.0713 70.4734 61.455 70.8571 61.9284 70.8571H108.428C108.902 70.8571 109.286 70.4734 109.286 70V63.3571C109.286 62.8838 108.902 62.5 108.428 62.5Z" fill="white"/>
<path d="M98.1589 65.0068H63.6268C63.2806 65.0068 63 65.2875 63 65.6336C63 65.9798 63.2806 66.2604 63.6268 66.2604H98.1589C98.5051 66.2604 98.7857 65.9798 98.7857 65.6336C98.7857 65.2875 98.5051 65.0068 98.1589 65.0068Z" fill="#DDE3E9"/>
<path d="M86.3938 67.0957H63.6268C63.2806 67.0957 63 67.3763 63 67.7225C63 68.0687 63.2806 68.3493 63.6268 68.3493H86.3938C86.7399 68.3493 87.0205 68.0687 87.0205 67.7225C87.0205 67.3763 86.7399 67.0957 86.3938 67.0957Z" fill="#DDE3E9"/>
<path d="M104.133 68.1787C104.961 68.1787 105.633 67.5071 105.633 66.6787C105.633 65.8503 104.961 65.1787 104.133 65.1787C103.304 65.1787 102.633 65.8503 102.633 66.6787C102.633 67.5071 103.304 68.1787 104.133 68.1787Z" fill="#DDE3E9"/>
<path d="M104.133 67.3218C104.488 67.3218 104.776 67.034 104.776 66.679C104.776 66.3239 104.488 66.0361 104.133 66.0361C103.778 66.0361 103.49 66.3239 103.49 66.679C103.49 67.034 103.778 67.3218 104.133 67.3218Z" fill="#F2F2F2"/>
<path d="M108.428 52.4287H61.9284C61.455 52.4287 61.0713 52.8125 61.0713 53.2859V59.9287C61.0713 60.4021 61.455 60.7859 61.9284 60.7859H108.428C108.902 60.7859 109.286 60.4021 109.286 59.9287V53.2859C109.286 52.8125 108.902 52.4287 108.428 52.4287Z" fill="white"/>
<path d="M98.1589 54.9355H63.6268C63.2806 54.9355 63 55.2162 63 55.5623C63 55.9085 63.2806 56.1891 63.6268 56.1891H98.1589C98.5051 56.1891 98.7857 55.9085 98.7857 55.5623C98.7857 55.2162 98.5051 54.9355 98.1589 54.9355Z" fill="#DDE3E9"/>
<path d="M86.3938 57.0244H63.6268C63.2806 57.0244 63 57.305 63 57.6512C63 57.9974 63.2806 58.278 63.6268 58.278H86.3938C86.7399 58.278 87.0205 57.9974 87.0205 57.6512C87.0205 57.305 86.7399 57.0244 86.3938 57.0244Z" fill="#DDE3E9"/>
<path d="M104.133 58.1074C104.961 58.1074 105.633 57.4358 105.633 56.6074C105.633 55.779 104.961 55.1074 104.133 55.1074C103.304 55.1074 102.633 55.779 102.633 56.6074C102.633 57.4358 103.304 58.1074 104.133 58.1074Z" fill="#DDE3E9"/>
<path d="M104.133 57.2506C104.488 57.2506 104.776 56.9627 104.776 56.6077C104.776 56.2527 104.488 55.9648 104.133 55.9648C103.778 55.9648 103.49 56.2527 103.49 56.6077C103.49 56.9627 103.778 57.2506 104.133 57.2506Z" fill="#F2F2F2"/>
<path fill-rule="evenodd" clip-rule="evenodd" d="M147.211 47.5798C146.366 47.0066 145.242 46.8564 144.23 46.8564C140.28 46.8564 136.567 48.3222 133.359 50.5061C131.601 51.7028 130.029 53.2267 128.64 54.8134C127.839 55.7293 127.124 56.7201 126.619 57.8221C126.277 58.5659 126.043 59.3408 125.884 60.1402C125.691 61.1144 125.537 62.1083 125.467 63.0987C125.44 63.4886 125.213 65.5581 125.862 65.5931C125.858 65.6441 125.857 65.6928 125.861 65.7364C124.453 67.9378 123.583 70.5179 122.777 72.964C122.075 75.0927 121.449 77.2393 121.043 79.4414C120.509 82.3406 120.158 85.2833 119.991 88.2242C119.955 88.8562 119.93 89.4886 119.909 90.1214C119.891 90.6612 119.873 91.201 119.855 91.7408C119.836 92.3458 119.729 93.0422 119.825 93.6436C119.909 94.1674 120.362 94.0881 120.382 93.5669C120.407 92.9375 120.403 92.3069 120.43 91.677C120.467 90.8411 120.505 90.0051 120.545 89.1694C120.83 83.364 121.899 77.644 123.87 72.1602C124.668 69.941 125.582 67.8403 126.757 65.7875C127.791 63.9825 129.033 62.2352 130.304 60.6078C131.538 59.0263 132.822 57.4814 134.335 56.1414C135.562 55.0541 136.913 54.1069 138.301 53.2255C140.064 52.1061 141.823 51.0138 143.733 50.1545C144.726 49.7079 145.737 49.308 146.738 48.8794C146.918 48.8023 147.111 48.7275 147.284 48.6382C147.861 48.3404 147.671 47.8918 147.211 47.5798Z" fill="#C1DEE2"/>
<path fill-rule="evenodd" clip-rule="evenodd" d="M131.318 67.8564C132.92 67.8564 134.346 68.0646 135.822 68.7014C137.097 69.251 138.258 69.9785 139.386 70.7705C140.972 71.8845 142.221 73.1811 143.095 74.8989C143.618 75.9252 144.001 77.3774 143.65 78.4968C143.237 79.8152 142.102 80.9147 140.608 80.6824C139.683 80.5389 138.836 79.9271 138.134 79.3514C137.294 78.6625 136.621 77.8342 136.065 76.9143C135.159 75.4137 134.627 73.7174 133.857 72.1493C133.492 71.4051 133.139 70.6556 132.702 69.9483C132.485 69.5981 132.255 69.2512 131.926 68.9909C131.75 68.8517 131.009 68.6107 131.293 68.298C127.138 68.3526 123.457 71.5437 122.659 75.4937C122.585 75.8619 122.527 76.2331 122.465 76.6035C122.427 76.8374 122.442 77.7 122.233 77.8494C121.772 78.179 121.966 77.1777 121.986 77.0335C122.037 76.6609 122.091 76.2886 122.149 75.9169C122.46 73.8953 123.36 72.016 124.861 70.5743C126.577 68.9257 128.893 67.8564 131.318 67.8564Z" fill="#89C5CC"/>
<path fill-rule="evenodd" clip-rule="evenodd" d="M15.8439 62.8717C19.8439 69.5821 24.5025 76.0797 27.3002 83.4166C27.1875 82.5518 27.068 81.6879 26.9342 80.8252C26.2243 76.2522 25.342 71.7125 24.4149 67.1785C23.9428 64.8699 23.4434 62.5698 22.9313 60.2698C22.6558 59.0345 22.3837 57.7984 22.1026 56.5643C22.0345 56.2651 21.976 55.743 21.8908 55.2139C24.6097 64.136 27.2317 73.0649 29.1495 82.2015C29.4011 83.4006 29.6154 84.5976 29.7909 85.7924C29.8509 85.5199 29.91 85.2472 29.9746 84.9754C30.7506 81.7167 31.9147 78.4839 33.3006 75.437C33.9632 73.9798 34.7243 72.5546 35.6204 71.2266C36.1792 70.3988 37.497 69.4148 38.0067 68.567C35.2189 73.6801 34.2123 80.0778 32.6026 85.6367C32.2097 86.9933 31.8144 88.3476 31.427 89.7043C33.8545 84.8361 37.6208 80.8363 42.8572 79.103C36.5187 83.2911 32.7168 90.6254 30.1548 98.1267C30.1464 98.2156 30.1363 98.3046 30.1277 98.3937C30.8815 96.9629 31.8312 95.6688 33.1182 94.7624C35.8729 92.822 38.9287 93.3872 41.6009 95.0517C39.5037 93.7186 35.7135 94.9325 33.9489 96.2874C32.6857 97.2574 31.6061 98.5586 30.6686 99.8281C30.444 100.132 30.1375 100.487 29.8137 100.866C29.3598 103.813 28.6201 106.739 27.5727 109.642C27.7456 108.809 27.6206 107.476 27.6685 106.855C27.6738 106.788 27.678 106.721 27.6832 106.654C27.524 107.289 27.3702 107.918 27.2221 108.536C27.5164 107.356 27.6764 106.125 27.8013 104.88C27.8335 104.345 27.8649 103.811 27.898 103.276C27.8875 102.261 27.8457 101.242 27.775 100.222C27.5243 99.2298 27.2437 98.2943 27.0122 97.5163C26.1769 94.709 24.9524 92.0195 23.4453 89.5105C22.0701 87.2209 20.4242 85.1469 18.524 83.2713C17.4996 82.2605 16.4275 81.2977 15.3705 80.3216C14.9883 79.9687 14.3052 79.1011 13.7144 78.6488C18.0173 81.0211 22.4463 83.5875 25.5853 87.4098C25.2173 85.9966 24.8175 84.6034 24.3947 83.2381C22.2496 76.3112 19.5411 69.1323 15.8439 62.8717Z" fill="#DDE3E9"/>
<path fill-rule="evenodd" clip-rule="evenodd" d="M20.1431 100.856C20.1431 108.549 20.7522 114.785 28.9288 114.785C37.1053 114.785 37.7145 108.549 37.7145 100.856" fill="#C5CFD6"/>
<path fill-rule="evenodd" clip-rule="evenodd" d="M145.236 62.5382C144.824 62.9754 144.241 63.2499 143.592 63.2499C142.345 63.2499 141.335 62.2425 141.335 60.9999C141.335 59.7572 142.345 58.7499 143.592 58.7499V54.5713C140.046 54.5713 137.143 57.4648 137.143 60.9999C137.143 64.5349 140.046 67.4284 143.592 67.4284C145.455 67.4284 147.138 66.6429 148.286 65.3931L145.236 62.5382Z" fill="#F2F2F2"/>
<path fill-rule="evenodd" clip-rule="evenodd" d="M143.572 54.5713V58.7499C144.814 58.7499 145.822 59.7572 145.822 60.9999H150C150 57.4648 147.107 54.5713 143.572 54.5713Z" fill="#AFB9C5"/>
<path fill-rule="evenodd" clip-rule="evenodd" d="M145.735 61C145.735 61.7301 145.392 62.379 144.857 62.798L147.485 66.1429C149.014 64.9454 150 63.0891 150 61H145.735Z" fill="#C5CFD6"/>
<path fill-rule="evenodd" clip-rule="evenodd" d="M128.57 98.711C128.571 98.7132 128.571 98.7154 128.573 98.718C128.571 98.7158 128.57 98.707 128.57 98.711Z" fill="#C5CFD6"/>
<path fill-rule="evenodd" clip-rule="evenodd" d="M128.572 98.7153C128.572 98.7159 128.572 98.7169 128.572 98.718C128.572 98.7153 128.568 98.7074 128.572 98.7153Z" fill="#C5CFD6"/>
<path fill-rule="evenodd" clip-rule="evenodd" d="M128.557 98.6777C128.56 98.6863 128.564 98.6944 128.567 98.703C128.566 98.6987 128.564 98.6953 128.562 98.691C128.607 98.8024 128.579 98.73 128.557 98.6777Z" fill="#C5CFD6"/>
<path fill-rule="evenodd" clip-rule="evenodd" d="M128.566 98.7041C128.568 98.708 128.57 98.7123 128.572 98.7162C128.584 98.7405 128.566 98.7041 128.566 98.7041Z" fill="#C5CFD6"/>
<path fill-rule="evenodd" clip-rule="evenodd" d="M128.572 98.7152C128.572 98.7145 128.572 98.7145 128.571 98.7139C128.572 98.7145 128.572 98.7145 128.572 98.7152Z" fill="#C5CFD6"/>
<path fill-rule="evenodd" clip-rule="evenodd" d="M128.574 98.7179C128.577 98.7231 128.562 98.6977 128.574 98.7179V98.7179Z" fill="#C5CFD6"/>
<path fill-rule="evenodd" clip-rule="evenodd" d="M128.572 98.7152L128.57 98.7139C128.571 98.7145 128.571 98.7152 128.572 98.7152Z" fill="#C5CFD6"/>
<path d="M114.214 82.2139H142.929C143.402 82.2139 143.786 82.5976 143.786 83.071V101.5C143.786 101.973 143.402 102.357 142.929 102.357H114.214C113.741 102.357 113.357 101.973 113.357 101.5V83.071C113.357 82.5976 113.741 82.2139 114.214 82.2139Z" fill="#DDE3E9"/>
<path fill-rule="evenodd" clip-rule="evenodd" d="M132.487 88L141.285 102.357H123.69L132.487 88Z" fill="#AFB9C5"/>
<path fill-rule="evenodd" clip-rule="evenodd" d="M123.416 91.8457L131.194 102.357H115.639L123.416 91.8457Z" fill="#C5CFD6"/>
<path d="M120.107 91.857C118.509 91.857 117.214 90.5618 117.214 88.9641C117.214 87.3665 118.509 86.0713 120.107 86.0713C121.705 86.0713 123 87.3665 123 88.9641C123 90.5618 121.705 91.857 120.107 91.857Z" fill="white"/>
<path opacity="0.9" fill-rule="evenodd" clip-rule="evenodd" d="M53.6999 35.3146C54.464 38.1476 55.4649 44.5713 54.464 45.577H48.0151V45.5416C46.7983 45.3594 45.6951 44.7716 44.9129 43.8888C44.1306 43.0059 43.723 41.8886 43.7667 40.7468V36.037C43.7128 34.8135 44.1829 33.6198 45.0747 32.7162C45.9664 31.8127 47.2074 31.2727 48.527 31.2139H48.9702C50.1599 31.2526 51.2943 31.6892 52.1637 32.443C53.0331 33.1968 53.5788 34.2169 53.6999 35.3146Z" fill="url(#paint0_linear)"/>
<path opacity="0.9" fill-rule="evenodd" clip-rule="evenodd" d="M46.2497 39.847C45.1465 38.6216 44.5794 37.0572 44.6604 35.463C44.9966 30.6611 51.6213 31.7164 52.9049 34.1386C54.1886 36.5608 54.0434 42.7083 52.3777 43.1404C51.7129 43.3174 50.2994 42.8925 48.8629 42.0142L49.7645 48.4663H44.4159L46.2497 39.847Z" fill="#F9F1E3"/>
<path fill-rule="evenodd" clip-rule="evenodd" d="M54.2572 93.5388C54.2033 93.4613 54.1597 93.3781 54.1273 93.2909C53.4091 91.3858 41.9935 70.8609 40.8551 67.0859H53.7147C54.5781 69.9189 58.4673 87.8445 59.0175 91.4141C60.7443 97.08 64.3049 115.303 64.7634 116.564C65.2219 117.824 62.5476 119.283 61.837 117.647C59.8877 112.999 58.1943 108.262 56.7634 103.454C55.6325 99.3535 54.708 95.6635 54.2572 93.5388Z" fill="#FFF3DD"/>
<path fill-rule="evenodd" clip-rule="evenodd" d="M43.7358 96.0531C38.5094 97.3846 19.4148 99.7926 18.1006 100.175C16.7864 100.557 15.5714 97.7529 17.2372 97.1508C21.9424 95.5202 26.7465 94.1463 31.625 93.036C35.1933 92.3277 38.4406 91.7045 40.6259 91.3574C40.4425 85.1674 39.5944 70.3226 40.1522 67.1143H51.5371C51.0022 70.188 46.5094 92.611 45.6765 94.8774C45.5369 95.2435 45.2713 95.5569 44.9206 95.7694C44.5699 95.9818 44.1536 96.0815 43.7358 96.0531Z" fill="#FFF3DD"/>
<path opacity="0.9" fill-rule="evenodd" clip-rule="evenodd" d="M17.3593 96.3726C16.8602 96.2565 16.3433 96.2205 15.8311 96.2664C15.2548 96.3923 14.6901 96.5605 14.1425 96.7692C14.2189 97.2414 14.9448 101.396 16.3201 109.234C17.4357 109.369 17.9782 109.078 17.94 108.37C17.9018 107.662 17.8789 107.06 17.8636 106.585L19.3918 100.339C19.4084 100.283 19.4008 100.224 19.3708 100.174C19.3408 100.123 19.2907 100.086 19.2313 100.07L18.2762 99.8572C17.9163 99.4088 17.6565 98.8983 17.5121 98.3557C17.4705 97.8784 17.5249 97.3981 17.6726 96.9392C17.7043 96.8266 17.6889 96.707 17.6293 96.6045C17.5698 96.502 17.4706 96.4242 17.3516 96.3868L17.3593 96.3726Z" fill="#730943"/>
<path opacity="0.9" fill-rule="evenodd" clip-rule="evenodd" d="M61.0192 117.463C60.812 117.943 60.6858 118.45 60.6448 118.965C60.666 119.559 60.7324 120.15 60.8435 120.736H73.3898C73.7107 119.652 73.5273 119.064 72.8244 118.979L71.0746 118.745L65.2446 116.118C65.2171 116.106 65.1874 116.1 65.1573 116.1C65.1271 116.099 65.0972 116.104 65.0693 116.115C65.0414 116.126 65.0161 116.141 64.995 116.161C64.9739 116.181 64.9575 116.205 64.9466 116.231L64.5722 117.152C64.0912 117.414 63.5537 117.573 62.9982 117.619C62.5138 117.578 62.0448 117.44 61.6228 117.216C61.5691 117.191 61.5105 117.178 61.4508 117.176C61.391 117.174 61.3316 117.184 61.2762 117.204C61.2207 117.225 61.1706 117.256 61.129 117.296C61.0873 117.336 61.0552 117.383 61.0345 117.435C61.0345 117.435 61.0192 117.449 61.0192 117.463Z" fill="#730943"/>
<path fill-rule="evenodd" clip-rule="evenodd" d="M40.1826 67.1148C44.7985 65.6636 49.8017 65.6636 54.4176 67.1148C55.9458 74.2822 59.7662 77.1222 60.4233 88.1071C52.8589 91.9033 43.5217 85.4087 35.7356 89.1057C33.5121 83.9355 36.6296 71.4775 40.1826 67.1148Z" fill="url(#paint1_linear)"/>
<path opacity="0.9" fill-rule="evenodd" clip-rule="evenodd" d="M34.1771 60.2515H39.0444C33.7059 72.3719 30.9221 78.7178 30.6929 79.2891C30.181 80.5781 31.2659 82.5399 31.732 83.5881C30.2039 84.2964 30.3796 81.7396 28.4617 82.6391C26.7196 83.4606 25.4054 84.9409 23.3729 83.6873C23.2721 83.613 23.1931 83.5163 23.1434 83.4061C23.0936 83.296 23.0747 83.176 23.0885 83.0573C23.1022 82.9385 23.1481 82.825 23.2218 82.7271C23.2956 82.6292 23.3949 82.5502 23.5105 82.4974C25.1456 81.3642 27.499 79.3812 27.8199 78.7296C28.2529 77.8655 30.372 71.7062 34.1771 60.2515ZM61.7531 58.1976L70.5325 56.9936C72.0363 56.1107 73.6707 55.4356 75.3844 54.9893C75.797 54.9893 76.4618 55.1309 75.4761 55.9596C74.4905 56.7882 73.4895 57.7018 73.6652 58.1409C73.841 58.58 74.7579 58.4172 74.9107 59.0971C75.01 59.5503 73.5277 59.6283 70.4561 59.3166L63.3348 62.1496L61.7531 58.1976Z" fill="#FFF0D5"/>
<path fill-rule="evenodd" clip-rule="evenodd" d="M47.5109 44.6709L51.3313 44.9259C52.2711 53.4956 57.3905 58.9137 68.8366 57.0793L70.3647 68.1137C59.6675 69.5302 50.2768 65.1887 48.3513 53.4814C47.8132 50.5707 47.5321 47.624 47.5109 44.6709Z" fill="url(#paint2_linear)"/>
<path fill-rule="evenodd" clip-rule="evenodd" d="M45.6314 43.5588L51.4079 44.8903C51.4079 54.9191 54.5712 61.3145 56.1987 68.6873H40.596C40.3744 71.2299 40.2446 73.8504 40.1681 76.5346H28.4929C31.1213 62.3273 36.7068 51.333 45.2493 43.5518H45.6314V43.5588Z" fill="url(#paint3_linear)"/>
<path fill-rule="evenodd" clip-rule="evenodd" d="M47.7167 39.0405C47.9612 41.7035 47.8619 44.7489 47.1284 45.4713H40.6795C40.3204 39.1679 43.7893 41.6114 43.7893 35.6834C44.0109 35.4638 43.6976 35.2938 43.8963 35.1096L44.2783 34.0473C45.3633 31.7809 46.9526 31.441 48.6336 31.441C49.4774 31.3865 50.3192 31.5706 51.0477 31.9689C51.7762 32.3673 52.3572 32.9611 52.7139 33.672C52.2019 35.4638 50.1924 35.733 48.4044 36.8449C48.194 36.6712 47.922 36.5754 47.6403 36.5758C47.3123 36.6084 47.0088 36.7523 46.7884 36.9798C46.5679 37.2073 46.4459 37.5023 46.4459 37.8081C46.4459 38.1139 46.5679 38.4089 46.7884 38.6364C47.0088 38.8639 47.3123 39.0078 47.6403 39.0405H47.7167Z" fill="url(#paint4_linear)"/>
<path d="M124.725 121C116.447 121 109.736 113.948 109.736 105.25C109.736 96.5515 116.447 89.5 124.725 89.5C133.003 89.5 139.714 96.5515 139.714 105.25C139.714 113.948 133.003 121 124.725 121Z" fill="#C5CFD6"/>
<path fill-rule="evenodd" clip-rule="evenodd" d="M96.3997 118.569C98.8938 112.493 100.698 107.201 101.422 104.409C102.661 99.6292 103.604 95.4229 103.843 93.8521C104.411 90.1063 99.4703 89.8881 98.8172 91.7498C97.8287 94.5674 96.1031 103.825 94.0296 117.808L96.3997 118.569ZM125.331 99.4987C123.042 98.503 115.028 95.3868 111.163 94.5053C110.053 94.252 108.976 94.0167 107.964 93.804C104.956 93.1718 103.397 99.146 106.294 99.605C113.51 100.748 123.739 101.929 124.615 102.061C125.842 102.247 126.769 100.124 125.331 99.4987Z" fill="#B28B67"/>
<path fill-rule="evenodd" clip-rule="evenodd" d="M106.118 92.1602L118.496 85.2239V83.7139H117.024C105.048 87.073 98.929 89.2257 98.6656 90.172C98.6628 90.1822 98.6602 90.1924 98.6578 90.2026C98.6518 90.2113 98.6459 90.22 98.64 90.2288C96.2668 93.8217 94.8455 111.363 94.379 112.676L98.9266 113.423C100.666 106.322 106.232 101.375 106.084 92.8701C106.124 92.6206 106.134 92.384 106.118 92.1602Z" fill="url(#paint5_linear)"/>
<path fill-rule="evenodd" clip-rule="evenodd" d="M117.467 96.2797C118.6 96.0301 119.643 95.8074 120.535 95.6351C126.3 94.522 127.981 91.1252 126.987 83.7139L116.366 83.7139C114.631 84.2625 105.614 88.4249 100.936 90.6388C97.8394 92.1041 98.8155 97.3863 100.569 98.7609C100.578 98.8452 100.61 98.9025 100.666 98.9282C110.098 103.232 117.56 100.974 120.053 101.695L121.206 97.6914L117.467 96.2797Z" fill="url(#paint6_linear)"/>
<path fill-rule="evenodd" clip-rule="evenodd" d="M124.548 98.8621C125.166 98.9272 125.605 99.0294 125.864 99.1687C126.18 99.3381 126.615 99.6431 127.169 100.084C126.99 100.487 125.386 104.108 122.356 110.947C121.383 110.774 120.997 110.365 121.199 109.721C121.401 109.076 121.564 108.538 121.688 108.107L121.88 101.96C121.884 101.842 121.974 101.749 122.081 101.753C122.083 101.753 122.085 101.753 122.087 101.753L122.946 101.813C123.434 101.378 123.756 100.984 123.912 100.632C124.038 100.346 124.108 99.8951 124.122 99.2785L124.122 99.2785C124.127 99.0419 124.305 98.8547 124.52 98.8603C124.53 98.8606 124.539 98.8612 124.548 98.8621Z" fill="#7E4D1F"/>
<path fill-rule="evenodd" clip-rule="evenodd" d="M97.5351 117.443C97.7529 118.083 97.8618 118.562 97.8618 118.88C97.8618 119.266 97.8033 119.83 97.6864 120.571C97.2792 120.571 93.6194 120.571 86.7071 120.571C86.4217 119.533 86.5864 118.973 87.2012 118.89C87.8159 118.807 88.3265 118.732 88.7331 118.666L93.8362 116.161C93.9344 116.113 94.0495 116.162 94.0933 116.27C94.094 116.272 94.0947 116.273 94.0954 116.275L94.4235 117.151C94.9925 117.443 95.4549 117.59 95.8107 117.59C96.0998 117.59 96.499 117.461 97.0083 117.204L97.0083 117.204C97.2038 117.105 97.4349 117.2 97.5245 117.415C97.5283 117.424 97.5319 117.434 97.5351 117.443Z" fill="#7E4D1F"/>
<g clip-path="url(#clip0)">
<path fill-rule="evenodd" clip-rule="evenodd" d="M122.025 55.5333C123.048 54.3743 123.741 52.9539 123.626 51.3623C123.292 46.7765 116.674 47.7853 115.386 50.0998C114.099 52.4144 114.252 58.2854 115.916 58.699C116.579 58.864 117.993 58.4599 119.431 57.6235L118.528 63.7854H123.86L122.025 55.5333Z" fill="#B28B67"/>
<path fill-rule="evenodd" clip-rule="evenodd" d="M125.95 49.8357C126.122 49.6711 126.216 49.4361 126.297 49.213C126.382 48.9812 126.464 48.7471 126.52 48.5059C126.632 48.0239 126.633 47.4696 126.276 47.0954C125.99 46.7952 125.561 46.6606 125.166 46.6314C124.902 46.6119 124.631 46.6475 124.378 46.7277C124.127 46.8072 123.911 46.9657 123.668 47.0641C123.658 46.5447 123.566 46.0012 123.293 45.5577C123.03 45.131 122.611 44.8916 122.134 44.8282C121.644 44.7632 121.16 44.8738 120.721 45.1026C120.612 45.1599 120.503 45.2199 120.399 45.2878C120.312 45.3447 120.221 45.4132 120.119 45.4364C120.005 45.4622 119.948 45.3987 119.874 45.3184C119.787 45.2243 119.689 45.1415 119.586 45.068C119.128 44.7433 118.527 44.6098 117.996 44.8044C117.751 44.8941 117.514 45.0464 117.348 45.2563C117.2 45.4434 117.094 45.7401 116.89 45.8705C116.804 45.9258 116.743 45.8525 116.664 45.7983C116.545 45.7169 116.432 45.6271 116.313 45.5479C116.144 45.4366 115.962 45.3534 115.767 45.3098C115.481 45.2461 115.086 45.261 115.004 45.6221C114.974 45.7577 114.997 45.9027 115.007 46.0393C115.021 46.227 115.035 46.4145 115.052 46.6018C115.064 46.7441 115.081 46.8815 115.108 47.0212C115.123 47.0956 115.17 47.2344 115.137 47.309C115.095 47.4022 114.904 47.3492 114.823 47.3524C114.662 47.3589 114.5 47.3861 114.351 47.4525C114.236 47.504 114.114 47.5797 114.065 47.7073C114.035 47.7857 114.043 47.8663 114.057 47.9469C114.074 48.0437 114.055 48.0951 114.042 48.1928C113.826 48.09 113.076 47.8616 112.982 48.2357C112.95 48.3602 113.022 48.5009 113.077 48.606C113.172 48.7902 113.298 48.9586 113.426 49.1192C113.694 49.4542 114.013 49.7431 114.357 49.9902C113.954 50.1629 113.849 50.6723 114.198 50.9758C114.352 51.1098 114.559 51.1396 114.753 51.131C114.824 51.1279 114.926 51.1015 114.982 51.1135C115.012 51.1199 115.045 51.1445 115.086 51.1473C115.36 51.1654 115.67 51.1017 115.938 51.043C116.415 50.9385 116.867 50.7203 117.236 50.3881C117.331 50.3029 117.409 50.2538 117.536 50.2551C117.648 50.2561 117.758 50.2857 117.869 50.2884C118.164 50.2957 118.431 50.1565 118.705 50.0638C118.721 50.421 118.827 50.8144 118.978 51.1357C119.102 51.3978 119.36 51.4358 119.613 51.4588C120.424 51.5324 121.237 51.4503 122.049 51.4514C121.263 51.6227 120.451 51.6933 119.673 51.8948C119.321 51.9859 119.59 52.2147 119.74 52.3734C119.988 52.6346 120.172 52.9582 120.3 53.2991C120.684 52.8159 121.364 52.4975 121.965 52.646C122.63 52.81 123.099 53.6774 122.673 54.3009C122.427 54.6629 121.981 54.8027 121.61 54.9582C121.899 55.2484 121.969 55.677 122.143 56.0381C122.229 56.2161 122.35 56.4174 122.542 56.4795C122.613 56.5024 122.696 56.5044 122.752 56.5603C122.822 56.6295 122.838 56.7068 122.927 56.7663C123.281 57.0037 123.834 56.9854 124.148 56.6756C124.432 56.3955 124.358 55.9522 124.121 55.6681C124.498 55.5165 125.185 55.3215 125.035 54.7547C125.853 54.7023 127.837 53.4238 126.74 52.4895C127.342 52.1613 127.895 51.3593 127.508 50.6523C127.211 50.1079 126.518 49.8645 125.95 49.8357Z" fill="#191847"/>
</g>
<path fill-rule="evenodd" clip-rule="evenodd" d="M106.188 61.9295L98.0655 59.4913C96.5503 58.3117 95.1211 57.4493 93.7779 56.904C93.3873 56.8305 92.7406 56.8732 93.5487 57.79C94.3569 58.7067 95.1657 59.7074 94.935 60.0918C94.7043 60.4762 93.8635 60.1864 93.6202 60.7953C93.458 61.2013 94.8509 61.492 97.7988 61.6676L104.114 65.3841L106.188 61.9295ZM106.905 76.2496L100.07 81.269C98.2163 81.7692 96.6674 82.3916 95.4236 83.1361C95.1297 83.4039 94.7746 83.9461 95.9932 83.8524C97.2117 83.7587 98.4976 83.7149 98.6657 84.1305C98.8339 84.5461 98.0965 85.0432 98.4364 85.6039C98.6629 85.9778 99.7334 85.0404 101.648 82.7917L108.417 79.9848L106.905 76.2496Z" fill="#B28B67"/>
<path fill-rule="evenodd" clip-rule="evenodd" d="M117.523 62.7326C113.8 69.6732 108.418 74.9937 100.614 80.5245L103.569 83.856C112.282 80.6182 116.88 78.6646 119.138 72.1072C119.705 70.4614 120.101 65.2149 120.441 62.4545L117.523 62.7326Z" fill="url(#paint7_linear)"/>
<path fill-rule="evenodd" clip-rule="evenodd" d="M127.929 85.8563H111.429C115.166 74.4575 117.076 66.634 117.157 62.3859C117.161 62.1694 117.561 61.7877 117.738 61.8377C119.032 62.2032 120.416 62.0665 121.892 61.4277C125.804 67.7188 127.156 75.4644 127.929 85.8563Z" fill="#F2F2F2"/>
<path fill-rule="evenodd" clip-rule="evenodd" d="M120.484 61.4378C115.754 61.4765 108.08 62.3402 99.2308 59.499L98.3571 63.8648C105.046 68.1665 111.818 71.4988 117.753 71.0256C115.176 82.0798 115.295 91.1289 120.984 91.1289C123.701 91.1289 126.634 91.1289 129.782 91.1289C131.179 81.7384 127.507 68.7184 124.102 62.1512C123.972 61.9004 123.695 61.4276 123.043 61.4276C122.475 61.4276 121.623 61.4276 120.487 61.4276C120.486 61.431 120.485 61.4344 120.484 61.4378Z" fill="url(#paint8_linear)"/>
<defs>
<linearGradient id="paint0_linear" x1="49.3237" y1="31.2139" x2="49.3237" y2="45.577" gradientUnits="userSpaceOnUse">
<stop offset="0.260417" stop-color="#C04B1F"/>
<stop offset="1" stop-color="#FFB800"/>
</linearGradient>
<linearGradient id="paint1_linear" x1="47.7063" y1="66.0264" x2="47.7063" y2="89.3454" gradientUnits="userSpaceOnUse">
<stop stop-color="#996D99"/>
<stop offset="1" stop-color="#5FA1B7"/>
</linearGradient>
<linearGradient id="paint2_linear" x1="58.9378" y1="44.6709" x2="58.9378" y2="68.3722" gradientUnits="userSpaceOnUse">
<stop stop-color="#480525"/>
<stop offset="1" stop-color="#810D55"/>
</linearGradient>
<linearGradient id="paint3_linear" x1="42.3458" y1="43.5518" x2="42.3458" y2="76.5346" gradientUnits="userSpaceOnUse">
<stop stop-color="#830E57"/>
<stop offset="1" stop-color="#650733"/>
</linearGradient>
<linearGradient id="paint4_linear" x1="46.6836" y1="31.4316" x2="46.6836" y2="45.4713" gradientUnits="userSpaceOnUse">
<stop stop-color="#B83505"/>
<stop offset="1" stop-color="#FFCE49"/>
</linearGradient>
<linearGradient id="paint5_linear" x1="106.437" y1="83.7139" x2="106.437" y2="113.423" gradientUnits="userSpaceOnUse">
<stop stop-color="#915B3C"/>
<stop offset="1" stop-color="#EC762A"/>
</linearGradient>
<linearGradient id="paint6_linear" x1="113.091" y1="83.7139" x2="113.091" y2="101.695" gradientUnits="userSpaceOnUse">
<stop stop-color="#915B3C"/>
<stop offset="1" stop-color="#FF8E00"/>
</linearGradient>
<linearGradient id="paint7_linear" x1="108.807" y1="65.0679" x2="113.153" y2="81.288" gradientUnits="userSpaceOnUse">
<stop stop-color="#CB4B2A"/>
<stop offset="1" stop-color="#B28B67"/>
</linearGradient>
<linearGradient id="paint8_linear" x1="114.222" y1="59.499" x2="114.222" y2="91.1289" gradientUnits="userSpaceOnUse">
<stop stop-color="#CF3F1F"/>
<stop offset="1" stop-color="#B28B67"/>
</linearGradient>
<clipPath id="clip0">
<rect width="30.2143" height="22.2857" fill="white" transform="matrix(-1 0 0 1 135.857 41.5)"/>
</clipPath>
</defs>
</svg>
