<svg width="169" height="158" viewBox="0 0 169 158" fill="none" xmlns="http://www.w3.org/2000/svg">
<path fill-rule="evenodd" clip-rule="evenodd" d="M0.213229 132.091C4.49902 110.02 47.8661 122.594 76.2971 115.77C104.728 108.947 138.364 77.1701 160.625 92.7362C182.886 108.302 159.201 145.93 108.144 154.421C57.0863 162.912 -4.07256 154.162 0.213229 132.091Z" fill="#F2F2F2"/>
<path opacity="0.5" fill-rule="evenodd" clip-rule="evenodd" d="M133.817 20.6861C132.66 20.7084 129.802 21.1294 129.377 22.4983C129.055 23.5375 130.013 23.3093 130.526 22.9312C131.221 22.4199 131.83 22.1139 132.691 21.9583C135.969 21.3653 139.119 23.4918 142.366 23.7607C143.596 23.8626 145.08 23.929 146.255 23.5306C147.091 23.247 147.2 22.6285 146.246 22.5343C145.435 22.4543 144.537 22.7065 143.706 22.6993C140.266 22.6699 137.208 20.6214 133.817 20.6861Z" fill="#C1DEE2"/>
<g opacity="0.5">
<path opacity="0.5" fill-rule="evenodd" clip-rule="evenodd" d="M35.8786 25.2476C33.6645 25.2725 31.4515 25.3542 29.2417 25.494C27.1403 25.6272 24.8602 25.5261 22.793 25.9334C22.206 26.049 21.4131 26.584 22.1936 27.1725C22.7422 27.5861 24.7493 27.1103 25.4044 27.07C27.8169 26.9218 30.2307 26.7441 32.6466 26.6588C34.9338 26.5779 37.2208 26.5494 39.509 26.5266C39.8584 26.5232 40.4383 26.4112 40.7862 26.5126C41.2861 26.6584 41.1675 26.698 41.2049 27.3325C41.2728 28.4822 41.254 29.636 41.2312 30.7867C41.2092 31.9002 41.168 33.0137 41.172 34.1277C41.1748 34.9225 40.9207 36.5019 41.3196 37.1922C41.8936 38.1857 42.4892 37.1066 42.5321 36.4464C42.6142 35.1836 42.5774 33.9053 42.5777 32.6409C42.578 31.4541 42.5865 30.2673 42.5447 29.0811C42.5144 28.2242 42.6368 26.7284 42.1753 25.9494C41.7051 25.1561 40.5732 25.3271 39.7472 25.2893C38.4589 25.2301 37.1681 25.2342 35.8786 25.2476Z" fill="#89C5CC"/>
<path opacity="0.5" fill-rule="evenodd" clip-rule="evenodd" d="M21.7911 26.6795C21.7935 28.9094 21.5356 31.1244 21.4633 33.3518C21.4302 34.3758 21.3629 35.5004 21.622 36.5056C21.8835 37.5207 22.7141 37.7406 22.8097 36.6074C23.0035 34.3128 22.9559 31.9334 23.1068 29.6204C23.16 28.8037 23.5066 27.3071 23.1831 26.5424C22.8982 25.8687 21.7899 25.7396 21.7911 26.6795Z" fill="#89C5CC"/>
<path opacity="0.5" fill-rule="evenodd" clip-rule="evenodd" d="M42.5538 36.5092C38.7086 37.0182 34.6888 36.8326 30.8162 36.9126C28.9582 36.951 27.1006 36.9535 25.2424 36.9728C24.5939 36.9795 22.947 36.7329 22.386 37.0974C21.4929 37.6778 22.4619 38.1256 23.0531 38.1384C26.7202 38.2188 30.4281 38.0502 34.0944 37.9298C35.7417 37.8758 37.3943 37.8494 39.0372 37.7094C40.0486 37.6232 41.1538 37.5397 42.136 37.2679C42.3452 37.2099 42.8008 37.2219 42.8478 36.9365C42.8766 36.76 42.8242 36.4718 42.5538 36.5092Z" fill="#89C5CC"/>
<path opacity="0.5" fill-rule="evenodd" clip-rule="evenodd" d="M26.5641 39.7505C25.4955 39.7567 22.275 39.2603 21.8324 40.3024C21.2424 41.6922 23.5442 41.3678 24.1632 41.3519C25.5692 41.3159 26.9742 41.312 28.3805 41.3126C29.7605 41.3132 31.1402 41.3043 32.5199 41.2715C32.9196 41.2618 33.85 41.4278 34.0799 40.9464C34.2547 40.5806 34.1166 40.2921 33.7943 40.0984C33.0188 39.6323 31.0041 39.9026 30.0962 39.8607C28.9206 39.8065 27.7412 39.7505 26.5641 39.7505Z" fill="#89C5CC"/>
<path opacity="0.5" fill-rule="evenodd" clip-rule="evenodd" d="M39.5655 40.007C38.9548 40.0433 37.7194 39.7916 37.1722 40.071C36.5504 40.3888 36.7695 40.8862 37.3064 41.1048C37.6782 41.2561 39.2034 41.1768 39.5655 41.0014C39.943 40.8186 40.3699 39.9575 39.5655 40.007Z" fill="#89C5CC"/>
<path opacity="0.5" fill-rule="evenodd" clip-rule="evenodd" d="M46.2615 26.8987C45.6092 27.0777 45.8071 30.7809 45.7903 31.368C45.7442 32.9764 45.5634 34.9994 46.0979 36.5485C46.4387 37.536 47.0933 37.4021 46.9818 36.3624C46.8838 35.4499 46.7158 34.5479 46.6431 33.6295C46.4785 31.5513 46.2547 29.3345 46.4101 27.2546C46.4762 27.3754 47.095 28.4964 47.2406 28.4128C47.1967 28.4389 46.5269 26.8287 46.2615 26.8987Z" fill="#89C5CC"/>
<path opacity="0.5" fill-rule="evenodd" clip-rule="evenodd" d="M53.599 25.5348C52.279 25.5543 50.9589 25.5777 49.6392 25.6143C48.5898 25.6436 46.941 25.4712 45.9787 25.9125C44.8329 26.438 45.3765 27.609 46.4527 27.6337C47.4048 27.6557 48.4201 27.441 49.3808 27.4081C51.9758 27.3192 54.5754 27.3003 57.1715 27.2781C59.5195 27.2578 61.9672 27.5083 64.2946 27.1557C64.6398 30.221 63.7061 33.2993 64.0237 36.3998C64.0729 36.8811 64.0508 37.561 64.6637 37.6707C65.4371 37.809 65.4689 37.043 65.4983 36.4944C65.582 34.9282 65.5367 33.3607 65.6513 31.7924C65.7576 30.339 65.9668 28.8536 65.79 27.3979C65.5726 25.6066 64.7142 25.7502 63.1969 25.6757C59.9921 25.5186 56.8073 25.4877 53.599 25.5348Z" fill="#89C5CC"/>
<path opacity="0.5" fill-rule="evenodd" clip-rule="evenodd" d="M49.175 36.4188C48.5024 36.4358 47.3852 36.2285 46.9542 36.8735C46.5057 37.5446 47.0378 38.1299 47.6898 38.2677C48.4617 38.4307 49.4681 38.2072 50.2692 38.2048C51.1034 38.2024 51.9379 38.2116 52.7721 38.2149C56.3487 38.2289 59.9407 38.2831 63.5148 38.1352C64.0139 38.1146 65.4305 38.282 65.776 37.8032C66.0826 37.3785 65.8681 36.9976 65.4644 36.7813C64.802 36.4264 63.4414 36.5614 62.7047 36.5332C61.7948 36.4986 60.8838 36.4872 59.9734 36.4731C56.3801 36.4176 52.768 36.33 49.175 36.4188Z" fill="#89C5CC"/>
<path opacity="0.5" fill-rule="evenodd" clip-rule="evenodd" d="M52.2006 39.5215C50.8621 39.5443 49.434 39.4855 48.1088 39.6885C46.9436 39.867 46.8002 40.9934 48.0545 41.1252C49.2071 41.2464 50.6046 41.0199 51.7629 40.9456C52.1742 40.9191 52.6527 40.9567 52.8498 40.5019C53.0556 40.0267 52.6622 39.5711 52.2006 39.5215Z" fill="#89C5CC"/>
<path opacity="0.5" fill-rule="evenodd" clip-rule="evenodd" d="M62.3193 39.6396C61.6049 39.6574 59.5182 39.3503 59.1643 40.1662C58.5753 41.5247 61.4002 41.0086 61.9421 40.9886C62.6251 40.9635 65.2871 41.3623 65.2877 40.275C65.2883 39.2087 62.9735 39.6234 62.3193 39.6396Z" fill="#89C5CC"/>
<path opacity="0.5" fill-rule="evenodd" clip-rule="evenodd" d="M21.6756 46.3907C21.6773 48.862 21.5235 51.3564 21.749 53.8214C21.8422 54.841 21.8262 56.794 22.4167 57.6583C22.8359 58.2718 23.4173 58.2288 23.6463 57.4921C23.7993 56.9996 23.5545 56.0147 23.5272 55.4879C23.5009 54.9823 23.4702 54.4769 23.4468 53.9711C23.3867 52.6682 23.3915 51.3673 23.4094 50.0637C23.4247 48.9455 23.6939 47.466 23.4401 46.3907C23.2035 45.3884 21.6756 45.1541 21.6756 46.3907Z" fill="#69A1AC"/>
<path opacity="0.5" fill-rule="evenodd" clip-rule="evenodd" d="M46.5123 44.2163C42.2247 44.3239 37.9276 44.2278 33.6438 44.4401C31.5312 44.5447 29.4268 44.7745 27.3248 45.0036C26.292 45.1162 25.2599 45.2323 24.229 45.3594C23.9179 45.3977 21.3328 45.4979 22.3051 46.481C22.7297 46.9103 24.0807 46.4618 24.6153 46.3985C25.6503 46.2764 26.6875 46.1698 27.724 46.0602C29.6964 45.8516 31.6712 45.6539 33.652 45.5443C38.317 45.2858 43.0013 45.3634 47.671 45.1911C48.9342 45.1445 50.1936 45.1111 51.4573 45.1609C51.7891 45.1739 54.2274 45.2978 53.1687 44.3973C52.6681 43.9712 50.7807 44.1911 50.1551 44.1783C48.9409 44.1532 47.726 44.1858 46.5123 44.2163Z" fill="#69A1AC"/>
<path opacity="0.5" fill-rule="evenodd" clip-rule="evenodd" d="M53.19 57.2545C53.1894 57.2555 53.1887 57.2565 53.188 57.2574C52.9544 57.6018 52.0912 57.5059 51.7132 57.5317C50.5627 57.6098 49.4336 57.7417 48.2934 57.9127C46.0215 58.2532 43.7693 58.4626 41.4728 58.5194C36.9308 58.6317 32.3701 58.5267 27.8349 58.8378C26.8304 58.9069 25.8412 59.0251 24.8532 59.2142C24.1476 59.3494 22.7879 59.812 22.7054 58.6464C22.6059 57.2418 26.13 57.2443 27.1376 57.1505C31.4642 56.748 35.8619 56.8329 40.2017 56.8934C42.3003 56.9225 44.395 56.9867 46.492 56.8584C48.5868 56.7303 50.7528 56.7639 52.8323 56.5386C52.5645 55.5001 52.6037 54.2016 52.5285 53.1405C52.3355 50.4163 52.3872 47.6828 52.2629 44.9558C52.2081 43.7543 53.8447 43.5723 54.33 44.5448C54.8203 45.5271 54.5017 47.4762 54.5334 48.5654C54.6068 51.087 55.0743 53.91 54.5805 56.404C54.4087 57.2714 53.677 57.7272 53.19 57.2545Z" fill="#69A1AC"/>
<path opacity="0.5" fill-rule="evenodd" clip-rule="evenodd" d="M55.8272 45.8358C55.248 45.9145 54.7648 46.4103 55.0234 47.0391C55.3491 47.8307 56.3192 47.5214 56.9601 47.4713C58.997 47.3117 61.1238 47.6304 63.1362 47.39C63.6857 47.3242 64.483 47.0249 63.9896 46.2864C63.6187 45.7314 62.2673 45.8288 61.6929 45.7757C59.7282 45.5939 57.7893 45.6424 55.8272 45.8358Z" fill="#C1DEE2"/>
<path opacity="0.5" fill-rule="evenodd" clip-rule="evenodd" d="M59.2652 49.2891C58.4752 49.3423 56.6363 49.3005 56.3033 50.1993C55.7062 51.8118 58.0452 51.2436 58.7573 51.1519C59.5846 51.0454 61.5348 51.3307 61.9753 50.5284C62.763 49.0938 59.958 49.2413 59.2652 49.2891Z" fill="#C1DEE2"/>
<path opacity="0.5" fill-rule="evenodd" clip-rule="evenodd" d="M57.2337 52.8278C56.8589 53.2027 56.8583 53.8722 57.2337 54.2471C57.6932 54.7062 58.6944 54.6108 59.2982 54.6443C60.1403 54.6914 62.5591 55.1368 62.9773 54.1452C63.5415 52.8072 61.3512 52.8352 60.6308 52.7593C59.7981 52.6716 57.9237 52.1373 57.2337 52.8278Z" fill="#C1DEE2"/>
<path opacity="0.5" fill-rule="evenodd" clip-rule="evenodd" d="M27.7122 29.925C27.7122 31.3634 29.9588 31.3634 29.9588 29.925C29.9588 28.4943 27.7122 28.4725 27.7122 29.925Z" fill="#89C5CC"/>
<path opacity="0.5" fill-rule="evenodd" clip-rule="evenodd" d="M31.9736 29.9414C31.9736 31.586 34.5326 31.5827 34.5326 29.9414C34.5326 28.3026 31.9736 28.2859 31.9736 29.9414Z" fill="#89C5CC"/>
<path opacity="0.5" fill-rule="evenodd" clip-rule="evenodd" d="M29.3955 32.1276C28.1515 32.4711 29.2975 33.5252 29.8751 33.766C30.793 34.1489 32.0459 34.431 32.9641 33.8571C33.3294 33.6287 33.626 33.3253 33.3583 32.8821C33.073 32.4102 32.6824 32.62 32.2481 32.6636C31.698 32.7189 31.2533 32.7104 30.722 32.534C30.3255 32.4023 29.8279 32.0086 29.3955 32.1276Z" fill="#89C5CC"/>
<path opacity="0.5" fill-rule="evenodd" clip-rule="evenodd" d="M51.9587 30.0159C51.9587 30.9888 53.4695 30.9888 53.4695 30.0159C53.4695 29.0429 51.9587 29.0429 51.9587 30.0159Z" fill="#89C5CC"/>
<path opacity="0.5" fill-rule="evenodd" clip-rule="evenodd" d="M55.3 30.1624C55.3 31.2433 56.9784 31.2435 56.9784 30.1624C56.9784 29.0812 55.3 29.0814 55.3 30.1624Z" fill="#89C5CC"/>
<path opacity="0.5" fill-rule="evenodd" clip-rule="evenodd" d="M55.1759 32.5091C54.2942 32.6227 51.7444 32.8812 51.6017 33.9679C51.3816 35.6445 54.1755 34.2876 54.8132 34.1559C55.6254 33.9883 56.3507 34.032 57.1615 34.0646C57.6067 34.0824 58.1988 34.1546 58.1521 33.4764C58.0756 32.3629 55.9465 32.4103 55.1759 32.5091Z" fill="#89C5CC"/>
<path opacity="0.5" fill-rule="evenodd" clip-rule="evenodd" d="M33.0092 47.9701C32.3702 48.1406 31.5343 49.2453 31.9739 49.9214C32.6948 51.0303 33.0128 49.3278 33.3145 49.1639C33.8634 48.8657 34.3091 49.9553 34.8828 49.3837C35.7881 48.4819 33.5792 47.8175 33.0092 47.9701Z" fill="#69A1AC"/>
<path opacity="0.5" fill-rule="evenodd" clip-rule="evenodd" d="M40.3314 47.1506C39.5736 47.1575 37.9737 48.2305 37.8604 49.0226C37.7931 49.4934 38.1052 49.9456 38.6126 49.9519C39.3036 49.9603 39.5231 49.062 40.1221 48.8741C40.7682 48.6715 40.6723 49.1381 41.2302 49.38C41.6386 49.5571 42.1493 49.483 42.2911 48.9809C42.5587 48.0339 41.1101 47.1357 40.3314 47.1506Z" fill="#69A1AC"/>
<path opacity="0.5" fill-rule="evenodd" clip-rule="evenodd" d="M34.5305 51.6863C33.3184 52.3966 35.3128 53.9191 36.0042 54.1096C37.0481 54.3968 39.1489 53.8606 39.3963 52.5855C39.4947 52.078 39.1773 51.6184 38.6172 51.7092C38.1561 51.7841 37.8604 52.3625 37.4333 52.5696C36.8568 52.8492 36.3442 52.8302 35.8544 52.4093C35.4553 52.0665 35.2415 51.2716 34.5305 51.6863Z" fill="#69A1AC"/>
<path opacity="0.5" fill-rule="evenodd" clip-rule="evenodd" d="M35.4091 62.1815C34.3262 62.4125 33.2253 62.2575 32.1372 62.4746C31.0275 62.6962 30.3644 63.1154 29.3335 62.693C29.285 62.6725 29.2366 62.652 29.1882 62.6316C28.3903 62.288 27.554 62.1862 26.7188 62.734C26.2245 63.0581 24.7241 64.1792 24.9049 64.8633C25.2968 66.3464 26.9852 64.0208 27.4157 63.7941C28.2366 63.3619 28.7995 63.9141 29.6447 64.0699C30.6571 64.2566 31.4717 63.7216 32.4253 63.5086C33.5407 63.2594 34.7955 63.1725 35.9302 63.0392C36.3785 62.9865 38.0766 63.341 38.2299 62.7831C38.4932 61.8247 35.8348 62.0912 35.4091 62.1815Z" fill="#C1DEE2"/>
<path opacity="0.5" fill-rule="evenodd" clip-rule="evenodd" d="M43.2222 65.168C43.293 65.2216 43.2362 65.1786 43.2222 65.168V65.168ZM46.2552 62.123C47.1823 62.029 50.1486 61.3667 50.7576 62.3247C51.1542 62.9487 50.5247 65.2518 49.9242 65.5496C49.4442 65.7875 48.3262 65.5245 47.7995 65.5059C46.8195 65.4714 45.8375 65.456 44.8586 65.3949C44.5303 65.3744 43.4739 65.4348 43.2166 65.1442C42.9127 64.8011 42.9262 62.9721 42.8547 62.5186C43.7071 62.7945 45.364 62.2136 46.2552 62.123ZM48.2349 61.1838C47.0475 61.2353 45.8604 61.3245 44.6819 61.4838C44.025 61.5725 43.3594 61.8086 42.7527 61.9204C42.5571 61.9565 42.2397 61.8565 41.9998 61.9723C41.299 62.3108 41.9127 64.6 42.0817 65.2115C42.3413 66.151 42.9946 66.3031 43.9098 66.3916C45.1155 66.5085 46.3459 66.4718 47.5553 66.4569C48.7211 66.4426 50.2931 66.701 50.9472 65.5312C51.3701 64.7749 51.8236 63.0136 51.4622 62.1707C50.9867 61.0617 49.2114 61.1429 48.2349 61.1838Z" fill="#C1DEE2"/>
<path opacity="0.5" fill-rule="evenodd" clip-rule="evenodd" d="M61.5313 65.7972C61.4679 65.8787 61.4679 65.8787 61.5313 65.7972V65.7972ZM61.7915 65.4836C61.7719 65.5133 61.6807 65.6095 61.7915 65.4836V65.4836ZM58.9599 65.3974C59.4833 65.2989 60.0069 65.2014 60.5309 65.1059C60.0347 65.8005 59.5122 65.5133 58.6645 65.4529C58.763 65.4343 58.8615 65.4159 58.9599 65.3974ZM56.4628 65.1516C56.5955 65.1072 56.7281 65.0628 56.8608 65.0184C56.8568 65.1194 56.8785 65.214 56.9259 65.302C56.6987 65.2775 56.4718 65.2512 56.2452 65.2233C56.3177 65.1994 56.3903 65.1755 56.4628 65.1516ZM55.3057 64.2971C55.2982 64.1148 55.5723 64.2399 55.7294 64.2277C55.4265 64.4943 55.2853 64.5174 55.3057 64.2971ZM59.4441 62.2301C59.4839 62.1793 59.5367 62.1818 59.6023 62.2378C59.5307 62.2618 59.2547 62.3789 59.4441 62.2301ZM62.1278 61.9145C62.1349 61.9145 62.2838 62.1155 62.1278 61.9145V61.9145ZM62.0525 61.8486C62.0915 61.8784 62.0915 61.8784 62.0525 61.8486V61.8486ZM61.7175 61.8095C62.2663 61.902 62.2246 62.546 61.7175 61.8095V61.8095ZM55.2707 61.7656C55.1592 61.8581 55.1973 61.7684 55.2707 61.7656V61.7656ZM57.3692 60.3945C56.4376 60.4488 54.7276 60.3942 53.9495 60.8905C52.9342 61.5384 53.4684 63.7687 53.5593 64.7464C53.6936 66.1916 54.3736 66.6031 55.7346 66.7548C57.3588 66.9358 59.0277 66.9696 60.6603 66.9267C62.1306 66.888 62.968 66.3823 63.2373 64.8342C63.3198 64.3605 63.5292 63.6278 63.5226 63.1741C63.5181 62.8594 63.3613 62.7159 63.3019 62.4482C62.9643 60.9247 62.3996 60.744 60.838 60.6775C59.6886 60.6286 58.497 60.3355 57.3692 60.3945Z" fill="#89C5CC"/>
</g>
<g opacity="0.5">
<path opacity="0.5" fill-rule="evenodd" clip-rule="evenodd" d="M83.0628 85.8437C85.4313 85.8942 88.1186 87.2051 87.744 89.9821C87.4697 92.0165 85.7083 93.668 83.6683 93.8104C81.4758 93.9634 79.1577 92.2807 78.8598 90.0483C78.5247 87.5374 80.7466 85.7936 83.0628 85.8437ZM81.9012 84.7132C80.941 84.8566 80.0235 85.3608 79.1779 85.8125C78.8552 85.985 77.2189 87.0366 78.5023 87.2978C75.4102 92.2847 82.6873 96.9168 86.7787 93.6757C88.616 92.2202 89.5833 89.4608 88.3957 87.3009C87.1673 85.0669 84.2544 84.3598 81.9012 84.7132Z" fill="#89C5CC"/>
<path opacity="0.5" fill-rule="evenodd" clip-rule="evenodd" d="M81.3354 88.9583C81.3354 89.8897 82.7811 89.8897 82.7811 88.9583C82.7811 88.0269 81.3354 88.0269 81.3354 88.9583Z" fill="#89C5CC"/>
<path opacity="0.5" fill-rule="evenodd" clip-rule="evenodd" d="M84.0156 89.1069C84.0156 90.1167 85.583 90.1167 85.583 89.1069C85.583 88.0972 84.0156 88.0972 84.0156 89.1069Z" fill="#89C5CC"/>
<path opacity="0.5" fill-rule="evenodd" clip-rule="evenodd" d="M82.207 91.1043C81.996 91.8704 84.4011 92.2633 84.4811 91.3767C84.5192 90.953 82.3536 90.5699 82.207 91.1043Z" fill="#89C5CC"/>
<path opacity="0.5" fill-rule="evenodd" clip-rule="evenodd" d="M89.257 90.6304C92.0244 90.2984 94.8778 90.4518 97.6586 90.5314C98.3545 90.5516 99.0504 90.5711 99.7464 90.5826C100.189 90.5901 101.145 90.8024 101.531 90.5953C103.112 89.7472 100.01 89.3371 99.5707 89.2981C96.8046 89.0705 92.5359 88.9893 89.7617 89.0967C88.9413 89.1285 88.7639 90.6896 89.257 90.6304Z" fill="#89C5CC"/>
<path opacity="0.5" fill-rule="evenodd" clip-rule="evenodd" d="M101.71 104.388C101.734 101.488 101.838 98.569 102.061 95.678C102.151 94.4997 102.26 93.3229 102.351 92.1445C102.393 91.5895 102.59 90.8121 102.264 90.325C101.928 89.8233 101.19 89.7189 100.746 90.1636C100.214 90.8523 100.369 92.0081 100.302 92.8411C100.201 94.122 100.078 95.4019 100.017 96.6855C99.8988 99.17 99.8711 101.698 100.071 104.179C100.165 105.349 100.369 106.492 100.641 107.633C100.765 108.153 101.75 110.468 101.543 110.788C101.222 111.283 98.8502 111.095 98.3357 111.109C97.0153 111.145 95.6944 111.168 94.3738 111.193C93.243 111.215 92.1123 111.23 90.9815 111.24C90.5324 111.244 87.8942 111.164 88.4794 111.83C81.9351 112.286 75.2657 111.525 68.7613 111.263C68.4327 111.25 67.8951 111.157 67.399 111.13C67.3395 110.89 67.2907 110.676 67.2786 110.527C67.1931 109.482 67.1708 108.433 67.0781 107.388C66.9085 105.476 66.5797 103.583 66.3841 101.674C66.1889 99.7672 66.2085 97.8546 66.0949 95.9431C66.0754 95.6155 66.0293 92.9325 65.3523 92.2807C65.6733 92.4024 66.1909 92.4182 66.489 92.3942C68.9018 92.1995 71.2971 91.7803 73.6892 91.4204C74.3736 91.3175 75.9267 91.3904 76.4944 91.0483C76.9857 90.7521 77.1801 89.7138 76.3254 89.7978C73.9401 90.0533 71.5676 90.4499 69.201 90.8403C68.5681 90.9447 67.9367 91.0564 67.3054 91.1705C66.8838 91.2467 65.771 91.2408 65.444 91.495C65.0469 91.8035 65.0047 92.0135 65.1393 92.1531C64.9522 92.1016 64.7279 92.1824 64.4586 92.452C63.9494 93.1148 64.4281 94.7472 64.4888 95.5243C64.5618 96.4566 64.5976 97.3904 64.6401 98.3243C64.7221 100.132 64.9113 101.914 65.2021 103.699C65.5279 105.7 65.8051 107.708 66.1318 109.708C66.2168 110.228 66.3277 110.736 66.4692 111.239C65.5891 111.689 66.1875 112.405 66.8855 112.532C66.8905 112.533 66.8957 112.534 66.9007 112.535C67.1183 113.065 67.4226 113.557 67.6603 112.846C67.6784 112.791 67.6869 112.724 67.6891 112.649C69.4919 112.853 71.4736 112.726 73.2485 112.799C77.0931 112.956 80.9615 113.192 84.8101 113.072C86.3337 113.025 87.8619 112.889 89.3727 112.686C90.2578 112.567 91.1464 112.425 92.0174 112.228C92.0798 112.213 92.1747 112.199 92.2842 112.181C92.3021 112.18 92.3203 112.18 92.3372 112.179C93.6709 112.159 95.0035 112.124 96.336 112.068C97.4546 112.022 98.5781 111.998 99.6932 111.892C100.386 111.827 101.849 111.839 102.275 111.142C102.661 110.509 102.015 108.878 101.923 108.166C101.762 106.914 101.7 105.65 101.71 104.388Z" fill="#C1DEE2"/>
<path opacity="0.5" fill-rule="evenodd" clip-rule="evenodd" d="M88.1943 96.0154C87.1286 96.1067 86.1432 96.6071 85.0676 96.6134C84.1649 96.6185 83.2761 96.3487 82.3685 96.3886C81.3038 96.435 80.7179 97.1235 79.7853 97.3539C79.0428 97.5373 78.575 96.9688 77.9219 96.7175C77.0973 96.3999 76.4882 96.5639 75.7814 97.0441C75.2621 97.397 74.051 98.1889 74.0604 98.9027C74.0881 101.065 76.6105 98.0781 77.119 98.0419C77.7946 97.9938 78.5494 98.7639 79.2683 98.8078C80.2187 98.866 80.8281 98.2533 81.7032 98.0301C82.5882 97.8043 83.5449 98.0809 84.4321 98.1667C85.4444 98.2646 86.3303 98.0389 87.3096 97.7973C88.2587 97.5631 89.0675 97.5756 90.0318 97.7722C90.6827 97.905 92.3041 98.6767 92.5888 97.6844C92.9765 96.3332 88.9393 95.952 88.1943 96.0154Z" fill="#89C5CC"/>
<path opacity="0.5" fill-rule="evenodd" clip-rule="evenodd" d="M88.5187 100.139C86.3351 100.35 84.1382 100.536 81.9446 100.596C80.9945 100.622 77.3421 100.215 77.666 101.422C77.9436 102.457 82.9139 101.805 83.9262 101.726C85.0438 101.64 86.1597 101.518 87.2718 101.377C87.6658 101.328 88.6176 101.379 88.8957 101.049C89.1608 100.733 89.0301 100.087 88.5187 100.139Z" fill="#89C5CC"/>
<path opacity="0.5" fill-rule="evenodd" clip-rule="evenodd" d="M73.4546 105.637C73.4049 105.658 73.4049 105.658 73.4546 105.637V105.637ZM73.9152 105.63C74.4596 105.613 74.3429 105.326 74.886 105.476C75.1364 105.545 75.1621 105.442 75.3563 105.682C75.7352 106.149 75.3783 107.166 75.0048 107.542C73.6221 108.936 71.9626 105.692 73.9152 105.63ZM73.9152 104.263C70.1296 104.39 71.7135 110.238 75.0083 109.044C76.369 108.551 77.2243 106.33 76.4239 105.082C76.0346 104.475 75.5382 104.367 74.886 104.325C74.7345 104.315 74.544 104.535 74.4495 104.525C74.2248 104.502 74.2458 104.251 73.9152 104.263Z" fill="#89C5CC"/>
<path opacity="0.5" fill-rule="evenodd" clip-rule="evenodd" d="M82.968 105.838C82.9005 105.817 84.1633 106.184 84.0251 106.04C84.3199 106.347 83.9235 107.072 83.59 107.199C82.7823 107.505 82.329 106.249 82.968 105.838ZM83.5283 104.252C82.343 104.42 81.4283 104.914 81.2663 106.232C81.1168 107.448 81.9388 108.68 83.2355 108.704C86.0617 108.756 86.1478 103.887 83.5283 104.252Z" fill="#89C5CC"/>
<path opacity="0.5" fill-rule="evenodd" clip-rule="evenodd" d="M96.4304 105.89C96.5959 108.05 94.3557 106.073 96.4304 105.89V105.89ZM95.469 103.579C95.2731 103.914 95.4401 104.269 95.7358 104.464C93.0933 105.022 93.6918 108.999 96.3808 108.411C97.7482 108.112 97.9997 106.675 97.7959 105.487C97.6989 104.923 96.292 102.172 95.469 103.579Z" fill="#89C5CC"/>
</g>
<path opacity="0.5" fill-rule="evenodd" clip-rule="evenodd" d="M101.721 105.653C100.933 105.793 99.071 106.663 99.0873 107.598C99.1125 109.056 100.695 107.463 101.047 107.249C102.938 106.098 105.388 107.589 107.357 107.907C108.26 108.052 110.026 108.321 110.824 107.716C112.242 106.64 108.962 106.909 108.544 106.866C106.274 106.632 104.015 105.243 101.721 105.653Z" fill="#C1DEE2"/>
<g opacity="0.5">
<path opacity="0.5" fill-rule="evenodd" clip-rule="evenodd" d="M138.928 50.7174C138.928 52.2098 138.852 53.7332 139.127 55.2077C139.211 55.6541 139.276 56.5091 139.747 56.7408C140.22 56.9734 140.679 56.712 140.796 56.2271C140.934 55.663 140.633 54.8186 140.602 54.2263C140.561 53.4172 140.558 52.6071 140.557 51.797C140.557 51.212 140.75 50.2709 140.059 49.9699C139.545 49.7461 138.928 50.1623 138.928 50.7174Z" fill="#C1DEE2"/>
<path opacity="0.5" fill-rule="evenodd" clip-rule="evenodd" d="M162.522 48.3568C157.578 48.8532 152.562 48.9563 147.599 49.2152C145.305 49.3348 142.533 49.1822 140.372 50.0701C139.971 50.235 138.534 51.1528 139.7 51.5264C140.064 51.643 140.434 51.2512 140.732 51.1199C141.23 50.9015 141.805 50.8339 142.336 50.7486C146.845 50.0245 151.562 50.1506 156.117 49.8122C157.284 49.7255 158.452 49.6362 159.617 49.5216C160.449 49.4398 162.199 48.8399 162.967 49.1467C164.279 49.6709 164.248 53.0772 164.274 54.2487C164.288 54.8545 163.7 57.0292 164.869 56.8088C165.804 56.6323 165.465 54.373 165.392 53.755C165.201 52.1351 164.875 48.1185 162.522 48.3568Z" fill="#C1DEE2"/>
<path opacity="0.5" fill-rule="evenodd" clip-rule="evenodd" d="M164.346 56.7307C160.051 57.1185 155.657 56.738 151.344 56.8905C149.084 56.9706 146.826 57.0979 144.565 57.1726C143.587 57.205 142.608 57.2063 141.63 57.2132C141.162 57.2164 139.033 57.5001 140.35 58.4277C140.933 58.8384 142.792 58.5076 143.461 58.4996C144.466 58.4877 145.471 58.446 146.475 58.4066C148.802 58.3156 151.127 58.1896 153.455 58.1266C155.682 58.0663 157.91 58.0534 160.137 57.9931C161.245 57.963 162.368 57.9291 163.466 57.7673C163.714 57.7308 164.518 57.7018 164.69 57.4254C164.853 57.1642 164.739 56.6928 164.346 56.7307Z" fill="#89C5CC"/>
<path opacity="0.5" fill-rule="evenodd" clip-rule="evenodd" d="M143.237 53.5057C143.214 53.5604 143.214 53.5604 143.237 53.5057V53.5057ZM145.097 52.9404C145.165 52.9692 145.165 52.9692 145.097 52.9404V52.9404ZM145.01 52.9247C146.012 53.9464 144.471 55.1658 143.532 54.1688C142.535 53.1106 144.365 52.9281 145.01 52.9247ZM143.947 51.3791C140.494 51.9935 141.717 56.5947 144.941 55.9297C146.357 55.6378 147.166 54.2117 146.679 52.8418C146.489 52.3066 146.074 51.7192 145.496 51.5505C145.208 51.4664 144.953 51.5987 144.679 51.5678C144.417 51.5383 144.272 51.3205 143.947 51.3791Z" fill="#C1DEE2"/>
<path opacity="0.5" fill-rule="evenodd" clip-rule="evenodd" d="M157.16 52.674C155.078 52.6806 152.995 52.769 150.914 52.8085C150.275 52.8205 148.634 52.5348 148.632 53.5414C148.629 54.6168 150.457 54.2197 151.065 54.2052C153.13 54.1558 155.2 54.0653 157.257 53.8688C157.776 53.8191 159.574 53.9048 159.572 53.1984C159.571 52.4499 157.579 52.674 157.16 52.674Z" fill="#C1DEE2"/>
<path opacity="0.5" fill-rule="evenodd" clip-rule="evenodd" d="M162.132 59.6936C156.983 59.8317 151.842 59.8798 146.697 60.1434C144.773 60.2419 142.851 60.3152 140.924 60.3152C140.553 60.3152 139.805 60.1715 139.456 60.4052C138.508 61.0392 139.588 61.5834 140.205 61.6176C144.432 61.8522 148.72 61.2684 152.944 61.1367C155.416 61.0596 157.89 61.0368 160.361 60.911C161.035 60.8766 161.71 60.8368 162.383 60.7845C162.77 60.7546 163.794 60.8368 164.107 60.6104C165.473 59.6216 162.593 59.6812 162.132 59.6936Z" fill="#89C5CC"/>
<path opacity="0.5" fill-rule="evenodd" clip-rule="evenodd" d="M138.508 62.2111C138.459 63.546 138.454 64.8577 138.629 66.1853C138.698 66.7077 138.729 67.3005 139.342 67.4332C139.898 67.5537 140.18 67.1331 140.295 66.6668C140.576 65.5279 140.329 63.8889 140.325 62.7058C140.324 62.121 140.323 61.4663 139.601 61.334C139.049 61.233 138.529 61.6316 138.508 62.2111Z" fill="#89C5CC"/>
<path opacity="0.5" fill-rule="evenodd" clip-rule="evenodd" d="M167.59 65.4297C159.255 65.8689 150.931 66.2523 142.59 66.6049C141.94 66.6325 136.887 66.5774 138.653 68.3396C139.199 68.8838 140.605 68.5152 141.31 68.4806C142.371 68.4285 143.432 68.3887 144.492 68.3347C148.696 68.1207 152.912 68.063 157.113 67.8228C159.425 67.6907 161.732 67.4838 164.032 67.2145C165.126 67.0865 166.484 67.0998 167.508 66.6711C168.035 66.4505 168.604 65.3759 167.59 65.4297Z" fill="#89C5CC"/>
<path opacity="0.5" fill-rule="evenodd" clip-rule="evenodd" d="M162.797 58.6578C162.163 59.2891 162.489 60.5344 162.537 61.3147C162.603 62.3885 162.683 63.4629 162.817 64.5307C162.904 65.2243 162.858 66.304 163.228 66.9031C163.661 67.6048 164.615 67.5272 165.007 66.8493C165.354 66.2498 165.178 64.9883 165.169 64.3239C165.157 63.4051 165.1 62.4849 165.045 61.568C164.999 60.8017 165.173 59.5736 164.752 58.9177C164.323 58.2512 163.391 58.067 162.797 58.6578Z" fill="#89C5CC"/>
<path opacity="0.5" fill-rule="evenodd" clip-rule="evenodd" d="M143.746 63.5564C143.672 63.6137 143.672 63.6137 143.746 63.5564V63.5564ZM145.227 63.3709C146.608 63.6487 144.374 65.2615 143.669 64.1546C143.558 63.9816 143.501 63.7691 143.678 63.6188C143.84 63.4815 143.941 63.7245 144.094 63.6592C144.356 63.5467 144.946 63.3604 145.227 63.3709ZM145.036 62.0468C144.093 62.1215 142.796 62.1797 142.33 63.1251C141.702 64.3949 142.775 65.6385 144.016 65.8316C145.21 66.0176 146.992 65.3562 147.088 63.9637C147.165 62.841 146.097 61.9607 145.036 62.0468Z" fill="#89C5CC"/>
<path opacity="0.5" fill-rule="evenodd" clip-rule="evenodd" d="M152.91 62.719C151.933 62.7347 150.014 62.446 149.164 62.9219C148.322 63.3928 148.698 64.2313 149.465 64.4319C149.973 64.5644 150.802 64.3505 151.331 64.3289C152.026 64.3007 152.721 64.2946 153.417 64.285C154.587 64.2693 155.756 64.2825 156.925 64.2825C158.12 64.2825 159.335 64.3152 160.528 64.2274C162.037 64.1163 161.996 62.9863 160.521 62.8451C158.014 62.6051 155.425 62.6794 152.91 62.719Z" fill="#89C5CC"/>
<path opacity="0.5" fill-rule="evenodd" clip-rule="evenodd" d="M150.416 75.3734C150.416 75.9103 150.892 75.3734 150.889 75.3734C150.892 75.3734 150.416 74.8365 150.416 75.3734Z" fill="#89C5CC"/>
<path opacity="0.5" fill-rule="evenodd" clip-rule="evenodd" d="M139.641 71.052C139.672 72.6125 139.692 74.1745 139.759 75.7337C139.78 76.2268 139.639 77.1896 140.236 77.441C140.901 77.7208 141.108 77.0234 141.185 76.5508C141.428 75.0536 141.19 73.3442 141.166 71.8292C141.159 71.3206 141.269 70.6124 140.691 70.3588C140.22 70.1519 139.632 70.5361 139.641 71.052Z" fill="#89C5CC"/>
<path opacity="0.5" fill-rule="evenodd" clip-rule="evenodd" d="M165.303 71.0772C165.343 71.1701 165.343 71.1701 165.303 71.0772V71.0772ZM165.359 71.0612C165.391 71.0746 165.52 71.1288 165.359 71.0612V71.0612ZM152.753 69.8C150.357 69.8375 147.96 69.866 145.566 69.9686C144.544 70.0124 143.51 70.0478 142.492 70.1441C141.771 70.2123 139.979 70.2407 139.512 70.8301C138.546 72.0466 140.593 71.7148 141.034 71.616C141.837 71.4361 142.656 71.3785 143.475 71.3353C145.254 71.2415 147.033 71.1913 148.814 71.1555C153.644 71.0583 158.477 71.0731 163.307 71.0513C163.775 71.0492 164.62 70.8611 165.052 71.0503C165.484 71.2399 165.46 71.7061 165.505 72.2473C165.565 72.9674 165.09 74.3397 165.452 74.9454C166.013 75.885 166.829 75.0872 166.954 74.4022C167.127 73.4557 166.853 72.3192 166.586 71.4145C166.208 70.138 165.684 70.0872 164.45 69.9875C163.007 69.8709 161.57 69.8003 160.123 69.7869C157.667 69.7643 155.209 69.7619 152.753 69.8Z" fill="#89C5CC"/>
<path opacity="0.5" fill-rule="evenodd" clip-rule="evenodd" d="M162.228 76.2503C157.032 76.8537 151.688 76.4982 146.464 76.5195C145.194 76.5247 143.923 76.5348 142.654 76.5965C141.983 76.6289 140.394 76.4441 139.935 76.9611C138.967 78.0512 140.711 78.2098 141.347 78.1646C142.634 78.0732 143.925 78.0314 145.215 78.0214C149.76 77.9863 154.331 78.1984 158.872 77.9741C160.775 77.8802 162.635 77.5548 164.502 77.1911C164.916 77.1105 167.748 76.5721 166.133 75.9268C165.178 75.5455 163.231 76.1333 162.228 76.2503Z" fill="#89C5CC"/>
<path opacity="0.5" fill-rule="evenodd" clip-rule="evenodd" d="M147.057 74.2544C147.021 74.3009 147.021 74.3009 147.057 74.2544V74.2544ZM147.022 74.2464C147.01 74.2797 146.972 74.3622 147.022 74.2464V74.2464ZM146.694 73.8236C146.702 73.8333 146.733 73.8729 146.694 73.8236V73.8236ZM146.682 73.8204C146.807 73.9698 146.891 74.1364 146.934 74.3202C145.858 74.6118 145.443 73.7409 146.682 73.8204ZM146.614 73.7796C146.614 73.7799 146.765 73.8436 146.614 73.7796V73.7796ZM144.845 72.4821C144.148 73.3498 143.573 74.361 144.442 75.3521C145.219 76.2382 146.781 76.3525 147.767 75.7609C148.782 75.1513 148.695 73.8681 147.986 73.0304C147.53 72.4911 147.161 72.5061 146.499 72.418C146.048 72.3581 145.227 72.0078 144.845 72.4821Z" fill="#89C5CC"/>
<path opacity="0.5" fill-rule="evenodd" clip-rule="evenodd" d="M152.048 74.0888C152.048 75.2442 157.036 74.7469 157.924 74.7456C158.667 74.7445 163.163 75.1546 162.84 73.9656C162.575 72.9887 158.147 73.4743 157.204 73.4728C156.389 73.4717 152.048 72.9121 152.048 74.0888Z" fill="#89C5CC"/>
</g>
<g opacity="0.5">
<path opacity="0.5" fill-rule="evenodd" clip-rule="evenodd" d="M96.6756 11.4911C96.7146 11.4852 96.7526 11.481 96.7891 11.4786C97.7538 11.4175 98.7311 11.4428 99.6977 11.4204C101.677 11.3745 103.734 11.4827 105.702 11.2509C106.102 11.1991 106.241 11.7121 106.062 11.978C105.861 12.2766 105.216 12.2614 104.918 12.3055C104.045 12.4349 103.16 12.48 102.278 12.5191C101.353 12.5601 100.427 12.5907 99.5004 12.6165C98.6982 12.6386 96.9181 12.9742 96.176 12.6384C95.5978 12.3768 95.6113 12.0862 95.8473 11.8611C95.7042 11.5466 95.7278 11.0315 95.697 10.7843C95.5687 9.74842 95.4913 8.72577 95.4895 7.68099C95.4858 5.63448 95.49 3.50901 96.056 1.52808C95.8293 1.4288 95.6925 1.28245 95.6932 1.0715C95.6962 -0.181321 100.292 0.117832 101.224 0.0930145C102.37 0.063087 103.515 0.059194 104.661 0.0653985C105.418 0.0694131 106.442 -0.0939718 107.196 0.0812138C108.664 0.421974 108.571 2.93844 108.601 4.15525C108.655 6.3379 108.623 8.63246 108.446 10.81C108.385 11.5618 107.838 12.5148 107.214 11.4784C106.866 10.9005 107.021 9.5506 107.021 8.91215C107.019 6.6424 107.375 4.30404 107.035 2.04597C106.923 1.30569 106.948 1.25569 106.195 1.27126C105.597 1.28367 105 1.3035 104.402 1.31603C103.186 1.34158 101.969 1.35824 100.753 1.40277C100.291 1.4198 98.6313 1.70971 97.337 1.70862C97.3376 1.71896 97.3387 1.7293 97.339 1.73988C97.3568 2.61496 96.9277 3.67702 96.8694 4.59772C96.7291 6.81211 96.8966 9.07833 96.6892 11.2815C96.6829 11.3484 96.6795 11.4195 96.6756 11.4911Z" fill="#89C5CC"/>
<path opacity="0.5" fill-rule="evenodd" clip-rule="evenodd" d="M114.1 12.1308C113.949 11.9772 113.814 11.7517 113.727 11.4703C113.415 10.4601 113.385 9.36989 113.362 8.3223C113.313 6.08333 113.337 3.84041 113.324 1.60065C113.121 1.32788 113.241 1.01591 113.495 0.798251C114.179 0.210527 116.152 0.359678 117.021 0.313692C118.272 0.247511 119.524 0.232304 120.776 0.227681C122.102 0.22099 123.43 0.244834 124.755 0.285589C125.247 0.300675 128.666 0.386686 127.138 1.21565C127.05 1.26312 126.952 1.30277 126.844 1.33569C126.908 1.71235 126.916 2.10125 126.905 2.28859C126.841 3.48059 126.813 4.67477 126.76 5.86737C126.701 7.19854 126.644 8.52958 126.599 9.86136C126.574 10.5654 126.815 12.2024 126.258 12.7107C125.883 13.0533 125.626 12.9847 125.453 12.7519C124.12 13.1391 121.043 12.8896 120.483 12.8899C119.478 12.8903 114.025 13.5358 114.016 12.3741C114.015 12.284 114.045 12.2032 114.1 12.1308ZM114.986 11.72C116.507 11.3951 119.344 11.6121 119.94 11.6099C121.052 11.6056 122.164 11.621 123.275 11.6654C123.621 11.6792 124.467 11.6126 125.136 11.6867C125.13 11.6262 125.126 11.5709 125.124 11.5231C125.063 10.3243 125.129 9.11293 125.168 7.91412C125.207 6.70583 125.266 5.49851 125.313 4.29045C125.337 3.6691 125.18 2.37205 125.35 1.4778C124.543 1.46245 123.696 1.36487 123.151 1.36481C121.873 1.36468 120.595 1.35021 119.317 1.37551C117.936 1.40288 116.541 1.41906 115.17 1.60118C115.095 1.61118 115.004 1.63046 114.904 1.65383C115.113 2.52682 114.86 3.93074 114.859 4.73951C114.856 7.00573 114.94 9.25967 114.991 11.514C114.992 11.5878 114.991 11.6564 114.986 11.72Z" fill="#89C5CC"/>
<path opacity="0.5" fill-rule="evenodd" clip-rule="evenodd" d="M101.264 12.5686C100.442 13.0488 100.885 14.9696 101.17 15.634C101.638 16.7263 102.588 17.5811 103.613 18.1481C105.685 19.2942 108.671 18.9898 110.238 20.9767C110.254 20.9972 110.796 21.5334 110.919 20.8391C111.02 20.2692 110.009 19.399 109.618 19.1134C108.503 18.3012 107.075 18.0393 105.786 17.6335C104.412 17.2008 102.903 16.4031 102.327 14.9863C102.123 14.4845 102.512 11.8361 101.264 12.5686Z" fill="#C1DEE2"/>
<path opacity="0.5" fill-rule="evenodd" clip-rule="evenodd" d="M120.056 13.4922C119.302 13.6999 119.801 14.7364 119.799 15.2554C119.798 15.9029 119.591 16.5805 119.192 17.0972C118.18 18.4075 116.198 18.6039 114.713 18.9796C113.634 19.2526 111.054 19.8378 110.953 21.2966C110.84 22.9257 113.118 20.9432 113.311 20.862C115.44 20.0808 118.195 19.9299 119.839 18.2104C120.517 17.5007 120.918 16.5534 120.982 15.5756C121.018 15.0251 121.024 13.2276 120.056 13.4922Z" fill="#C1DEE2"/>
<path opacity="0.5" fill-rule="evenodd" clip-rule="evenodd" d="M109.966 22.4191C113.102 21.5931 116.022 23.7899 116.392 26.95C116.782 30.285 114.268 32.9699 110.953 33.1171C108.038 33.2465 104.51 31.1588 104.491 27.9424C104.474 24.9282 107.358 23.105 109.966 22.4191ZM111.475 24.6672C110.939 24.9797 110.841 24.1688 110.461 24.0618C110.08 23.9545 109.468 24.3553 109.15 24.589C108.611 24.986 107.118 27.2965 106.394 26.0418C104.198 29.8342 109.673 32.6723 112.787 31.2371C116.206 29.6609 115.541 23.8984 111.495 23.8684C111.664 24.0989 111.817 24.4668 111.475 24.6672Z" fill="#89C5CC"/>
<path opacity="0.5" fill-rule="evenodd" clip-rule="evenodd" d="M108.625 26.9332C108.625 27.6251 109.717 27.6251 109.717 26.9332C109.717 26.2492 108.625 26.2199 108.625 26.9332Z" fill="#89C5CC"/>
<path opacity="0.5" fill-rule="evenodd" clip-rule="evenodd" d="M110.547 26.804C110.547 27.6514 111.886 27.6514 111.886 26.804C111.886 25.9661 110.547 25.9304 110.547 26.804Z" fill="#89C5CC"/>
<path opacity="0.5" fill-rule="evenodd" clip-rule="evenodd" d="M109.172 28.7786C108.077 29.4226 111.208 30.7023 111.332 29.3946C111.385 28.8304 110.839 28.9826 110.474 28.9411C110.126 28.9013 109.502 28.5861 109.172 28.7786Z" fill="#89C5CC"/>
<path opacity="0.5" fill-rule="evenodd" clip-rule="evenodd" d="M108.696 33.3473C108.744 34.9923 108.721 36.6364 109.033 38.2586C109.092 38.5666 109.134 39.6842 109.377 39.913C109.976 40.476 109.986 39.3969 110.009 38.9834C110.092 37.5022 109.937 35.975 109.903 34.4908C109.895 34.1713 109.98 33.5096 109.829 33.2003C109.59 32.7095 108.673 32.5637 108.696 33.3473Z" fill="#C1DEE2"/>
<path opacity="0.5" fill-rule="evenodd" clip-rule="evenodd" d="M107.526 32.0135C105.125 34.7077 101.819 34.5093 98.4893 34.7452C96.7299 34.8699 94.9508 35.1259 93.5349 36.264C92.8764 36.7934 92.3086 37.4566 91.9271 38.2123C91.7603 38.5427 90.9693 40.4491 92.1573 39.9967C92.5787 39.8364 92.9935 38.5757 93.266 38.2028C93.785 37.4926 94.4491 36.9063 95.2458 36.5251C96.7826 35.79 98.6176 35.8025 100.284 35.7092C102.026 35.6118 103.895 35.5206 105.496 34.7632C106.25 34.4069 106.956 33.9625 107.562 33.3898C107.779 33.1851 108.243 32.8374 108.278 32.5243C108.318 32.1666 107.974 31.5116 107.526 32.0135Z" fill="#C1DEE2"/>
<path opacity="0.5" fill-rule="evenodd" clip-rule="evenodd" d="M95.4075 40.2831C93.1526 40.3584 90.9006 40.4496 88.6489 40.5922C88.1874 40.6214 86.6489 40.5282 87.0408 41.4737C87.3548 42.2316 89.2311 41.7303 89.8518 41.6936C92.1982 41.5543 94.5542 41.5058 96.8956 41.2948C97.4216 41.2474 99.799 41.2663 98.8173 40.3342C98.3503 39.8905 96.0527 40.261 95.4075 40.2831Z" fill="#89C5CC"/>
<path opacity="0.5" fill-rule="evenodd" clip-rule="evenodd" d="M85.6089 41.3713C84.8981 42.3048 85.2247 44.5736 85.2784 45.6957C85.3304 46.7832 85.1192 48.7716 86.5387 48.9402C86.088 48.8811 86.8809 48.9675 87.0099 48.9745C87.2981 48.9899 87.5877 48.9949 87.8762 48.9981C88.5429 49.0054 89.21 48.9965 89.8766 48.9831C91.3866 48.953 92.9005 48.909 94.4085 48.8256C95.0424 48.7904 98.4814 48.8197 98.6176 48.1612C98.7915 47.3197 95.4943 47.7958 94.9041 47.8226C93.4665 47.8886 92.0268 47.9024 90.5881 47.9213C89.875 47.9307 89.1611 47.9377 88.448 47.9237C88.1536 47.918 86.9875 48.0389 86.8085 47.8425C86.6559 47.6752 86.775 46.1377 86.7718 45.9025C86.7613 45.1359 86.7621 44.3673 86.7894 43.601C86.8078 43.0851 87.0868 42.1034 86.8595 41.6188C86.6384 41.1476 85.994 40.9868 85.6089 41.3713Z" fill="#89C5CC"/>
<path opacity="0.5" fill-rule="evenodd" clip-rule="evenodd" d="M97.2195 41.4148C97.2607 43.1225 97.2735 44.8648 97.6768 46.5349C97.8111 47.0907 97.9991 48.2369 98.5575 48.5246C99.1436 48.8266 99.6496 48.3955 99.6878 47.8148C99.7361 47.0848 99.3452 46.1264 99.265 45.3773C99.1714 44.5033 99.1169 43.6285 99.0849 42.7503C99.0606 42.0898 99.2614 41.0995 98.6317 40.6736C98.0661 40.291 97.2011 40.6763 97.2195 41.4148Z" fill="#89C5CC"/>
<path opacity="0.5" fill-rule="evenodd" clip-rule="evenodd" d="M101.707 40.9981C101.006 41.6966 101.319 43.9084 101.407 44.8059C101.471 45.4634 102.191 48.6974 103.269 47.011C103.746 46.265 103.14 44.2924 103.144 43.4226C103.147 42.8686 103.343 42.1681 103.248 41.6358C103.123 40.9324 102.343 40.3628 101.707 40.9981Z" fill="#89C5CC"/>
<path opacity="0.5" fill-rule="evenodd" clip-rule="evenodd" d="M118.203 46.77C118.358 46.9372 118.426 47.1753 118.326 47.4084C118.085 47.968 117.197 47.8472 116.716 47.8874C115.107 48.0214 113.492 48.1108 111.878 48.125C110.318 48.1387 108.759 48.0987 107.199 48.114C105.9 48.1268 104.547 48.3901 103.26 48.3373C102.723 48.3151 102.149 48.1392 102.285 47.4448C102.406 46.8287 103.026 46.8238 103.531 46.7724C105.054 46.6174 106.577 46.5625 108.107 46.568C111.322 46.5792 114.534 46.5625 117.749 46.5457C117.881 46.5566 118.005 46.6071 118.108 46.6841C117.94 46.48 118.021 46.1778 117.989 45.8827C117.905 45.0875 117.85 44.3058 117.699 43.5107C117.579 42.8747 117.488 41.7944 116.899 41.3942C116.255 40.9574 114.827 41.1019 114.059 41.082C111.993 41.0288 109.915 41.1755 107.858 41.3625C106.92 41.4477 105.97 41.5127 105.043 41.6811C104.527 41.775 103.012 42.533 102.599 42.0666C101.606 40.9434 105.97 40.4822 106.563 40.421C108.669 40.2037 110.778 40.0407 112.896 40.0205C114.326 40.0093 116.774 39.8874 117.826 41.0609C118.457 41.7655 118.679 42.9264 118.925 43.8056C119.115 44.4809 119.628 45.6986 119.263 46.396C119.098 46.7116 118.832 46.9807 118.429 46.8689C118.335 46.8428 118.261 46.8094 118.203 46.77Z" fill="#89C5CC"/>
<path opacity="0.5" fill-rule="evenodd" clip-rule="evenodd" d="M128.973 37.8637C129.064 37.9815 129.064 37.9815 128.973 37.8637V37.8637ZM114.718 30.905C113.439 31.6569 115.807 33.8634 116.41 34.2047C117.767 34.9726 119.632 35.0884 121.148 35.3043C123.066 35.5778 125.154 35.6784 126.997 36.307C127.783 36.5749 128.282 36.9928 128.796 37.6351C129.056 37.9606 129.684 39.3634 130.255 39.0313C131.406 38.3625 128.306 35.556 127.623 35.2543C126.07 34.5683 124.234 34.3762 122.574 34.1099C121.03 33.8621 119.453 33.6779 117.947 33.2411C117.119 33.001 116.531 32.6136 116.053 31.8723C115.756 31.4102 115.512 30.4407 114.718 30.905Z" fill="#C1DEE2"/>
<path opacity="0.5" fill-rule="evenodd" clip-rule="evenodd" d="M121.582 47.1506C121.199 46.4172 121.023 45.008 120.989 44.7297C120.842 43.5306 120.831 42.3457 120.851 41.1392C120.863 40.4769 121.621 40.161 122.112 40.5326C122.769 40.2575 123.881 40.2162 124.478 40.1559C125.46 40.0567 126.449 40.0199 127.434 39.961C129.732 39.8236 132.028 39.5758 134.33 39.5247C135.019 39.5104 135.942 39.4482 136.493 39.9567C137.12 40.5358 137.245 41.9723 137.433 42.7463C137.637 43.5868 137.881 44.4421 137.967 45.3044C137.987 45.5064 138.041 45.8533 138.016 46.1654C138.303 46.2045 138.475 46.4826 138.446 46.7863C138.392 47.3502 137.611 47.4271 137.154 47.5163C135.634 47.8131 134.009 47.7456 132.468 47.7891C129.245 47.8799 125.797 48.4006 122.586 48.0906C122.036 48.0375 121.446 47.8434 121.582 47.1506ZM122.742 46.4871C122.87 46.4861 122.996 46.4885 123.113 46.4864C124.735 46.4581 126.355 46.409 127.975 46.3467C129.628 46.2833 131.28 46.2125 132.934 46.1935C134.248 46.1785 135.602 46.292 136.926 46.2409C136.641 45.4958 136.684 44.3229 136.532 43.5513C136.382 42.7852 136.324 41.8767 136.016 41.1572C135.67 40.3478 135.368 40.5351 134.465 40.5964C133.537 40.6594 132.61 40.748 131.683 40.8243C129.644 40.9919 127.604 41.098 125.564 41.2401C124.506 41.3137 123.493 41.6158 122.458 41.7343C122.443 42.1036 122.391 42.4763 122.397 42.7459C122.414 43.5409 122.492 44.3304 122.561 45.1221C122.589 45.4441 122.722 45.9999 122.742 46.4871Z" fill="#89C5CC"/>
</g>
<path fill-rule="evenodd" clip-rule="evenodd" d="M27.2992 105.132H50.0145H55.7617V132.466H50.0145V110.914H27.2992V132.466H21.552V105.132H27.2992Z" fill="#CBCBCB"/>
<g clip-path="url(#clip0)">
<path fill-rule="evenodd" clip-rule="evenodd" d="M95.068 78.3232H117.783H123.53V130.626H117.783V85.8139H95.068V130.626H89.3208V78.3232H95.068Z" fill="#CBCBCB"/>
<path fill-rule="evenodd" clip-rule="evenodd" d="M96.5904 70.7264L121.384 76.4882L113.682 83.8872L93.7058 78.2622L96.5904 70.7264Z" fill="black"/>
</g>
<g clip-path="url(#clip1)">
<path fill-rule="evenodd" clip-rule="evenodd" d="M97.3376 98.2349C99.5025 96.9349 103.135 98.6051 103.132 100.464C103.125 106.027 98.0482 132.244 97.7831 133.901C97.5181 135.558 94.6787 135.996 94.5133 133.907C94.2502 130.582 93.7614 119.071 94.2505 113.744C94.4524 111.544 94.6698 109.45 94.8838 107.582C92.22 112.392 88.1002 119.28 82.5245 128.244L79.4976 126.861C81.8745 119.03 83.8235 113.501 85.3447 110.275C87.9493 104.751 90.3916 100.021 91.4194 98.3547C93.0362 95.7337 95.8506 96.6482 97.3376 98.2349Z" fill="#B28B67"/>
<path fill-rule="evenodd" clip-rule="evenodd" d="M79.7138 122.512L90.1029 97.9012C92.5917 93.8976 99.5697 98.7159 98.721 101.038C96.7941 106.31 86.9942 123.377 86.4201 124.947L79.7138 122.512Z" fill="#6A432C"/>
<path fill-rule="evenodd" clip-rule="evenodd" d="M79.1368 125.309C78.4897 125.842 78.0687 126.277 77.8738 126.615C77.6369 127.025 77.3594 127.663 77.0415 128.53C77.5177 128.805 81.7971 131.275 89.8796 135.942C90.85 135.032 91.0012 134.325 90.3332 133.822C89.6652 133.319 89.1139 132.895 88.6794 132.55L84.2482 126.444C84.1629 126.327 83.9986 126.301 83.8811 126.386C83.8791 126.388 83.8771 126.389 83.8751 126.391L82.9544 127.1C82.1098 127.026 81.4794 126.869 81.0634 126.629C80.7254 126.434 80.3375 126.028 79.8995 125.411L79.8995 125.411C79.7315 125.174 79.4033 125.118 79.1666 125.286C79.1564 125.294 79.1464 125.301 79.1368 125.309Z" fill="#191847"/>
<path fill-rule="evenodd" clip-rule="evenodd" d="M53.8836 103.818H74.1885L76.849 136.409H46.6235L53.8836 103.818Z" fill="#C5CFD6"/>
<path fill-rule="evenodd" clip-rule="evenodd" d="M53.8836 103.818H60.1285L63.8662 136.409H46.6235L53.8836 103.818Z" fill="black" fill-opacity="0.1"/>
<path fill-rule="evenodd" clip-rule="evenodd" d="M93.8485 132.572C93.5545 133.357 93.4075 133.944 93.4075 134.334C93.4075 134.808 93.4864 135.499 93.6443 136.409C94.1942 136.409 99.1355 136.409 108.468 136.409C108.854 135.135 108.631 134.448 107.801 134.346C106.971 134.245 106.282 134.153 105.733 134.071L98.8428 130.999C98.7102 130.94 98.5548 131 98.4957 131.132C98.4947 131.135 98.4937 131.137 98.4928 131.139L98.0499 132.214C97.2816 132.572 96.6572 132.751 96.1768 132.751C95.7865 132.751 95.2475 132.594 94.5598 132.278L94.5598 132.278C94.2959 132.158 93.9839 132.273 93.8629 132.537C93.8577 132.549 93.8529 132.56 93.8485 132.572Z" fill="#191847"/>
<path fill-rule="evenodd" clip-rule="evenodd" d="M103.86 102.355C103.86 109.338 100.544 125.625 100.542 127.163L93.4074 127.168C94.4517 112.635 94.822 105.29 94.5183 105.133C94.0627 104.899 75.8439 106.952 70.3798 106.952C62.5005 106.952 59.2411 101.984 58.9766 92.7793H74.5851C77.7631 93.1194 94.3401 96.4629 100.496 97.6123C103.132 98.1044 103.86 100.431 103.86 102.355Z" fill="#915B3C"/>
</g>
<path fill-rule="evenodd" clip-rule="evenodd" d="M79.9262 54.3194C78.9761 52.6192 78.4915 50.6706 79.0282 48.7015C80.5746 43.0281 88.3324 45.8845 89.3137 49.0978C90.2949 52.3111 88.6469 59.6404 86.5303 59.7595C85.6862 59.8071 84.0763 58.9603 82.5437 57.5652L82.1011 65.5133L75.6486 64.2318L79.9262 54.3194Z" fill="#915B3C"/>
<path fill-rule="evenodd" clip-rule="evenodd" d="M89.6639 50.5228C89.6747 50.1337 89.6015 49.6846 89.5462 49.3035C89.4749 48.8121 89.3112 48.3494 89.118 47.9055C88.7544 47.0699 88.2749 46.2853 87.7094 45.6008C86.6765 44.3505 85.2226 43.459 83.6422 43.3409C82.8442 43.2812 82.0289 43.4282 81.287 43.795C80.6167 44.1264 79.9266 44.6732 79.1642 44.5709C78.3346 44.4595 77.7271 43.5871 77.1587 43.01C76.5177 42.3592 75.8024 41.8358 74.9647 41.5212C73.5614 40.9942 72.1013 41.2137 70.8651 42.2053C69.5496 43.2606 68.4073 44.9645 68.7727 46.7815C68.8406 47.1192 68.9555 47.4154 69.152 47.681C69.3322 47.9246 69.6258 48.2039 69.6515 48.541C69.6788 48.8993 69.3089 49.2811 69.1384 49.5656C68.8941 49.9733 68.6735 50.4084 68.6247 50.8945C68.5445 51.6929 68.8883 52.5386 69.3059 53.1567C69.7308 53.7858 70.3223 54.2155 70.9902 54.4922C71.4362 54.6769 71.9006 54.8221 72.3795 54.8812C72.6172 54.9105 72.8368 54.8864 73.0741 54.8798C73.3049 54.8733 73.4166 54.9564 73.5798 55.1146C74.3381 55.8499 75.2304 56.2533 76.2516 56.3692C77.1135 56.4669 78.1315 56.4555 78.9385 56.012C79.8348 55.5193 79.9962 54.6266 80.0042 53.6402C80.1769 53.7731 80.695 53.9371 80.4535 53.4959C80.3579 53.3212 80.133 53.2132 79.9896 53.0931C79.8226 52.9533 79.6587 52.7829 79.5465 52.5866C79.0932 51.7942 79.9597 50.5367 80.7431 50.4568C81.907 50.3379 81.8445 51.9382 82.5479 52.4951C82.9524 52.8152 83.4861 52.5934 83.8874 52.3383C84.425 51.9967 84.8465 51.4863 85.2279 50.9575C85.542 50.5221 85.8423 50.0768 86.1602 49.6446C86.3087 49.4427 86.7945 48.8853 86.6633 48.5976C87.4801 48.597 88.2905 49.0973 88.8822 49.66C89.1267 49.8925 89.3012 50.13 89.3883 50.4722C89.407 50.5455 89.437 50.7584 89.5228 50.7839C89.6824 50.8314 89.6611 50.6205 89.6639 50.5228Z" fill="#191847"/>
<path fill-rule="evenodd" clip-rule="evenodd" d="M85.5815 73.4974L96.173 71.1539C98.2173 69.7922 100.122 68.827 101.887 68.2582C102.392 68.2013 103.213 68.3168 102.096 69.41C100.978 70.5032 99.8517 71.7033 100.11 72.2155C100.368 72.7276 101.468 72.4373 101.721 73.2371C101.889 73.7703 100.085 74.0097 96.3077 73.9553L87.9007 78.1002L85.5815 73.4974ZM98.6594 81.884L103.314 80.848C104.5 78.8696 105.487 77.9876 106.274 78.2022C106.957 78.0974 105.121 80.4995 106.33 80.5967C107.539 80.694 110.925 79.4344 111.282 79.9943C111.81 80.8226 110.622 82.5476 109.6 83.2803C107.69 84.6497 106.36 84.9209 103.278 84.8858C101.666 84.8674 99.8121 85.2312 97.7155 85.9773L98.6594 81.884Z" fill="#915B3C"/>
<path fill-rule="evenodd" clip-rule="evenodd" d="M81.4572 71.0875C84.6667 71.9853 89.1301 72.5517 94.524 70.9874L95.1511 75.4951C91.1035 77.6972 85.9425 78.9722 82.1132 77.7397C79.0955 76.7685 78.612 72.6355 81.4572 71.0875Z" fill="#400D2A"/>
<path fill-rule="evenodd" clip-rule="evenodd" d="M83.9039 78.7361C87.054 80.5722 93.0411 81.2317 101.865 80.7144C102.654 85.3948 102.719 88.5868 102.061 90.2905C94.1583 91.8764 87.8145 91.7622 82.9404 90.4575C82.2576 93.3762 81.1117 96.0089 79.2091 98.1654C75.2978 102.599 62.5372 93.7231 57.5083 93.2747C57.3461 82.7346 64.2496 80.4802 66.0563 74.2922C68.0347 67.5157 76.5147 58.6673 77.3154 58.9005L84.6177 61.0265C83.5135 66.3203 83.8805 72.6156 83.9039 78.7361Z" fill="url(#paint0_linear)"/>
<path d="M43.4461 102.767H34.1411C33.8388 102.767 33.5938 103.002 33.5938 103.292V104.606C33.5938 104.897 33.8388 105.132 34.1411 105.132H43.4461C43.7484 105.132 43.9935 104.897 43.9935 104.606V103.292C43.9935 103.002 43.7484 102.767 43.4461 102.767Z" fill="#AFB9C5"/>
<path fill-rule="evenodd" clip-rule="evenodd" d="M36.3307 95.1446C37.5057 91.4875 38.164 87.6326 38.3058 83.5801H39.0675H39.5555C39.6973 87.6326 40.3556 91.4875 41.5306 95.1446H43.3095C45.6523 95.1446 47.5515 96.9686 47.5515 99.2185C47.5515 101.468 45.6523 103.292 43.3095 103.292H34.2781C31.9353 103.292 30.0361 101.468 30.0361 99.2185C30.0361 96.9686 31.9353 95.1446 34.2781 95.1446H36.3307Z" fill="#DDE3E9"/>
<path fill-rule="evenodd" clip-rule="evenodd" d="M29.1117 65.3601C32.2478 65.066 35.384 64.9189 38.5201 64.9189C41.6562 64.9189 44.7924 65.066 47.9285 65.3601L49.1935 86.2432C45.6357 86.5703 42.0779 86.7339 38.5201 86.7339C34.9623 86.7339 31.4045 86.5703 27.8467 86.2432L29.1117 65.3601Z" fill="#C5CFD6"/>
<defs>
<linearGradient id="paint0_linear" x1="87.9973" y1="62.0105" x2="76.8997" y2="100.127" gradientUnits="userSpaceOnUse">
<stop stop-color="#812157"/>
<stop offset="1" stop-color="#380B24"/>
</linearGradient>
<clipPath id="clip0">
<rect width="99.8756" height="126.159" fill="white" transform="translate(37.322 1.83984)"/>
</clipPath>
<clipPath id="clip1">
<rect width="78.8492" height="62.8165" fill="white" transform="translate(29.5396 92.7793)"/>
</clipPath>
</defs>
</svg>
